<svg width="945" height="866" viewBox="0 0 945 866" fill="none" xmlns="http://www.w3.org/2000/svg">
<g opacity="0.5" filter="url(#filter0_f)">
<circle cx="563" cy="433" r="233" fill="#FFDDC4"/>
</g>
<g clip-path="url(#clip0)">
<path d="M398.395 163.91C398.395 163.91 409.933 175.031 414.744 177.883C419.555 180.693 431.948 214.504 413.235 230.594C413.235 230.594 403.899 244.648 392.199 241.634C380.539 238.619 356.077 167.576 398.395 163.91Z" fill="#A66230"/>
<path d="M421.674 343.717C390.038 369.299 328.721 344.125 328.721 344.125L329.332 329.826L329.414 327.83C328.925 327.749 328.395 327.667 327.865 327.545C310.864 324.164 283.263 303.552 275.11 295.975C266.67 288.195 234.422 249.537 226.227 236.99C218.074 224.443 196.833 197.273 203.927 168.31C211.021 139.347 270.992 137.269 319.018 138.084C367.044 138.899 374.831 203.75 374.831 203.75C374.831 203.75 388.611 189.9 399.129 207.09C409.647 224.24 389.711 231.002 389.711 231.002C415.763 287.421 421.674 343.717 421.674 343.717Z" fill="#FFC193"/>
<path d="M326.368 198.034C326.368 198.034 317.015 191.845 298.759 195.814C280.502 199.783 270.986 206.139 275.029 209.831C279.073 213.522 294.96 213.411 305.988 210.802C317.056 208.165 329.758 204.64 326.368 198.034Z" fill="#231F20"/>
<path d="M233.977 230.397C233.977 230.397 245.576 219.757 248.339 225.661C251.102 231.566 250.76 240.013 240.63 248.343C230.51 256.632 230.183 247.364 229.443 244.098C228.72 240.881 231.066 232.772 233.977 230.397Z" fill="#231F20"/>
<path d="M236.175 196.988C236.175 196.988 232.832 209.249 225.005 217.681C217.177 226.114 199.116 221.714 196.792 216.663C194.468 211.612 175.266 214.015 172.045 196.58C168.825 179.145 172.739 156.782 197.648 158.818C197.648 158.818 195.936 135.762 216.932 124.274C237.928 112.787 254.766 116.046 258.517 113.317C262.267 110.628 284.731 91.8082 306.013 99.9961C327.294 108.225 334.103 118.246 334.103 118.246C334.103 118.246 340.259 111.158 347.271 115.19C354.283 119.223 352.245 122.727 352.245 122.727C352.245 122.727 363.945 112.461 371.692 120.282C379.438 128.144 372.589 139.958 379.152 143.542C385.716 147.127 403.94 141.383 404.551 169.613C404.551 169.613 384.942 199.432 376.747 202.08C368.552 204.727 350.002 201.55 344.784 187.211C339.525 172.831 342.501 171.894 339.484 170.713C336.426 169.532 321.179 175.235 314.126 169.084C307.073 162.933 301.202 164.725 301.202 164.725C301.202 164.725 288.156 183.3 273.275 186.844C258.354 190.429 241.964 191.651 236.175 196.988Z" fill="#A66230"/>
<path d="M254.97 341.232C254.97 341.232 314.329 349.257 333.246 351.701C352.163 354.105 442.63 356.06 442.63 356.06C442.63 356.06 472.35 375.695 492.694 381.52C512.997 387.304 539.171 401.928 545.327 420.993C551.483 440.057 462.158 559.657 462.158 559.657L434.924 635.384L319.262 607.684L189.291 463.073L184.113 377.609L254.97 341.232Z" fill="#BF9C83"/>
<path d="M448.786 346.161C448.052 348.687 446.462 356.59 441.162 365.144C440.428 366.326 439.613 367.507 438.757 368.688C434.517 374.391 428.524 380.094 419.84 384.453C419.024 384.86 418.168 385.268 417.312 385.675C412.379 387.875 406.631 389.667 399.944 390.767C399.17 390.889 398.395 391.011 397.58 391.134C391.668 391.989 385.023 392.315 377.644 392.03C376.788 391.989 375.972 391.948 375.157 391.908C374.382 391.867 373.567 391.826 372.792 391.785C365.046 391.256 358.36 390.237 352.571 388.893C351.715 388.689 350.899 388.486 350.084 388.282C342.419 386.245 336.467 383.597 331.819 380.746C330.759 380.094 329.781 379.402 328.843 378.75C315.634 369.055 315.552 357.73 315.552 357.812C315.552 357.975 309.641 334.918 314.615 331.904C316.409 330.804 318.243 330.112 320.119 329.826C320.893 329.704 321.627 329.623 322.442 329.623C328.721 329.501 335.774 332.719 345.232 335.855C346.007 336.1 346.782 336.344 347.556 336.589C353.59 338.462 360.602 340.214 368.96 341.029C369.898 341.11 370.795 341.192 371.773 341.273C372.548 341.314 373.363 341.355 374.138 341.395C381.15 341.721 388.651 341.436 396.153 340.662C396.927 340.581 397.743 340.499 398.517 340.418C406.019 339.521 413.52 338.177 420.574 336.466C421.348 336.263 422.123 336.1 422.897 335.896C425.629 335.204 428.279 334.43 430.847 333.656C434.231 332.596 437.085 332.108 439.409 332.108C440.265 332.108 441.04 332.148 441.773 332.271C449.846 333.33 450.213 341.273 448.786 346.161Z" fill="#A98267"/>
<path d="M196.547 410.85C196.711 418.06 197.771 439.894 204.864 448.856C213.385 459.692 249.303 468.735 256.641 470.324C263.979 471.953 207.759 574.607 195.202 582.795C182.645 590.942 149.582 565.645 130.135 526.091C110.688 486.577 128.83 397.692 128.789 396.429C128.749 395.166 124.916 256.584 167.438 247.296C167.438 247.296 206.944 240.697 216.198 257.928C225.453 275.159 238.988 298.745 241.883 302.819C249.547 313.654 268.668 370.766 255.5 393.496C243.024 415.045 205.924 410.605 197.607 408.772C197.159 408.691 196.751 408.568 196.507 408.487C196.547 408.487 196.547 409.342 196.547 410.85Z" fill="#FFD0AE"/>
<path d="M174.603 306.773C171.293 308.399 162.235 315.899 165.545 318.904C168.855 321.909 174.061 318.678 178.966 315.448C183.871 312.217 188.475 309.258 187.452 307.857C186.429 306.457 184.353 302.006 174.603 306.773Z" fill="#231F20"/>
<path d="M220.055 277.703C220.055 277.703 209.607 280.087 211.503 283.649C213.399 287.211 218.199 289.825 228.648 287.125C236.554 285.085 234.779 283.305 234.779 283.305C234.779 283.305 234.295 275.52 220.055 277.703Z" fill="#231F20"/>
<path d="M182.564 355.042C182.564 355.042 191.696 349.135 194.631 352.027C197.567 354.92 191.533 365.063 183.012 367.059C174.532 369.055 173.431 363.107 182.564 355.042Z" fill="#FF939C"/>
<path d="M242.413 322.005C242.413 322.005 232.75 328.278 237.928 330.478C243.147 332.678 250.363 329.623 254.113 326.364C257.864 323.105 256.233 313.817 242.413 322.005Z" fill="#FF939C"/>
<path d="M243.188 466.861C243.188 466.861 296.88 481.037 305.523 483.278C314.166 485.518 326.438 492.769 328.069 525.276C329.699 557.742 333.654 606.869 333.654 606.869C333.654 606.869 319.507 703.494 318.203 703.535C316.898 703.576 259.821 726.754 206.291 715.837C152.762 704.961 157.532 607.318 157.042 606.055C156.553 604.792 173.758 582.306 173.758 582.306C173.758 582.306 222.151 547.803 243.188 466.861Z" fill="#231F20"/>
<path d="M285.22 530.572C283.345 533.627 281.47 536.519 280.206 539.941C278.86 543.566 277.923 547.355 276.904 551.102C275.844 554.931 274.743 558.72 273.968 562.59C273.601 564.423 273.234 566.297 272.786 568.13C272.623 568.904 272.623 569.718 272.46 570.492C272.256 571.389 272.093 572.244 272.093 573.14C272.093 574.647 274.457 574.444 274.457 572.937C274.457 572.122 274.661 571.348 274.865 570.533C275.069 569.718 275.028 568.904 275.232 568.089C275.64 566.256 276.007 564.382 276.414 562.549C277.189 558.801 278.249 555.135 279.268 551.428C280.287 547.762 281.184 544.055 282.53 540.47C283.753 537.211 285.587 534.441 287.381 531.508C288.197 530.286 286.036 529.309 285.22 530.572Z" fill="white"/>
<path d="M288.89 543.485C285.669 548.21 283.141 553.424 280.899 558.679C279.757 561.327 278.86 564.015 277.882 566.704C276.985 569.107 275.558 571.307 275.558 573.914C275.558 575.421 277.923 575.218 277.923 573.711C277.923 571.348 279.553 569.148 280.287 566.989C281.143 564.382 282.163 561.816 283.223 559.29C285.343 554.361 287.666 549.391 290.724 544.992C291.54 543.729 289.746 542.222 288.89 543.485Z" fill="white"/>
<path d="M154.433 382.62C166.052 409.79 172.657 426.37 167.52 450.526C162.424 474.682 170.7 483.848 186.355 513.218C202.011 542.629 184.725 625.16 184.725 625.16C175.022 654.856 201.032 672.046 213.712 690.418C224.76 706.427 220.968 742.723 175.959 746.389C175.144 746.47 174.288 746.511 173.432 746.552C167.398 746.878 160.671 746.633 153.169 745.696C134.293 743.375 120.147 740.075 109.424 735.961C108.609 735.635 107.794 735.35 107.019 735.024C35.8361 704.92 75.0967 676.12 33.4715 639.702C12.3123 621.208 0.611612 578.517 21.3631 549.31C42.5222 519.492 25.0731 494.317 22.6269 480.711C14.0246 433.01 43.9899 426.125 50.1053 385.186C54.1822 358.056 53.5299 359.156 56.7099 320.131C58.7891 294.305 84.4328 255.036 101.637 245.056C102.371 244.608 103.105 244.2 103.798 243.834C111.544 239.475 116.967 237.153 116.967 237.153C134.62 218.17 152.762 212.426 165.523 211.123C167.153 210.96 168.662 210.878 170.129 210.838C177.957 210.593 182.849 211.978 182.849 211.978C188.149 211.571 192.715 212.019 196.589 212.997C197.363 213.2 198.138 213.404 198.831 213.648C216.158 219.392 218.645 236.827 218.645 236.827C233.077 260.046 205.639 271.656 181.586 285.71C179.384 287.013 177.182 288.317 175.062 289.661C172.412 291.331 169.885 293.042 167.52 294.835C142.488 313.736 140.735 350.52 154.433 382.62Z" fill="#FF939C"/>
<path d="M87.3273 303.674C79.7034 316.506 78.6842 332.352 81.6604 346.773C84.6773 361.478 91.7303 375.125 89.8957 390.523C88.3873 403.151 82.8834 414.679 77.6242 426.085C72.2427 437.817 66.6573 450.241 66.8204 463.399C66.9427 471.016 68.4512 478.512 71.2235 485.64C73.9958 492.728 77.9096 499.165 81.2119 506.008C87.9796 519.98 87.2049 535.541 86.145 550.654C85.8596 554.728 85.4926 558.801 84.9219 562.834C84.3919 566.704 83.3727 570.452 82.965 574.363C82.1088 582.387 81.4157 590.738 81.9865 598.804C82.5573 606.992 84.6365 614.732 87.898 622.227C91.078 629.519 95.5626 635.751 100.333 642.024C104.817 647.89 109.546 653.96 112.033 661.007C114.52 668.014 116.396 675.02 116.966 682.516C117.537 689.726 117.374 697.18 116.11 704.309C114.765 711.845 112.033 719.055 110.525 726.551C109.913 729.647 109.424 732.824 109.424 736.001C108.609 735.676 107.793 735.39 107.019 735.065C107.141 730.543 108.16 725.94 109.261 721.703C111.177 714.371 113.542 707.201 114.357 699.625C115.988 684.43 114.276 667.362 105.999 654.123C101.923 647.564 96.7857 641.78 92.4642 635.425C88.2242 629.193 84.8811 622.349 82.598 615.18C80.2742 607.806 79.2957 600.026 79.4996 592.327C79.6627 584.628 79.948 576.766 81.2934 569.189C82.7203 561.286 83.6173 553.506 84.0657 545.481C84.5142 537.578 84.8811 529.553 83.6173 521.732C81.0896 506.293 70.4081 494.073 66.5758 479.041C63.2735 466.046 64.3335 453.296 68.8589 440.75C73.2211 428.692 79.7034 417.49 83.9027 405.35C86.0634 399.118 87.6942 392.519 87.8165 385.879C87.9388 377.935 85.9411 370.399 83.6173 362.863C79.2957 348.891 75.9934 334.43 78.7657 319.724C80.0704 312.799 82.7203 306.607 86.4303 300.619C90.1403 294.631 94.258 288.928 97.6011 282.695C101.23 275.974 103.594 269.253 103.268 261.554C103.105 257.276 102.86 252.958 102.33 248.722C102.167 247.5 101.882 246.278 101.556 245.096C102.29 244.648 103.023 244.241 103.716 243.874C103.88 244.322 104.002 244.811 104.124 245.3C104.736 247.663 104.899 250.148 105.103 252.592C105.469 257.276 106.203 262.368 105.633 267.053C103.88 280.903 94.258 292.024 87.3273 303.674Z" fill="white"/>
<path d="M138.819 244.933C136.087 252.714 135.639 260.861 136.739 268.967C137.84 277.278 140.082 285.425 140.857 293.775C141.55 301.474 141.876 309.703 139.715 317.198C137.555 324.694 133.519 331.211 129.279 337.648C120.269 351.335 112.319 367.344 112.563 384.046C112.686 393.293 114.439 402.336 116.436 411.338C118.352 419.852 120.187 428.407 122.185 436.92C124.142 445.231 126.017 453.704 126.017 462.299C126.017 470.772 125.039 479.611 123 487.881C121.94 492.158 120.391 496.272 119.331 500.55C118.312 504.664 117.7 508.86 117.17 513.055C115.988 522.139 115.417 531.264 115.499 540.389C115.58 548.943 116.233 556.928 119.698 564.83C122.878 572.122 127.281 578.762 131.399 585.565C139.43 598.804 148.236 612.247 150.234 627.93C151.294 636.403 152.272 645.039 151.172 653.593C150.071 662.311 148.644 670.661 149.133 679.501C149.622 688.422 151.579 696.895 155.371 705.002C158.999 712.782 162.75 720.644 166.949 728.139C170.252 734.046 173.758 739.994 176.122 746.348C175.307 746.43 174.451 746.47 173.595 746.511C170.985 739.994 167.438 733.965 164.055 727.773C160.141 720.644 156.512 713.19 153.129 705.776C149.622 698.117 147.421 690.174 146.891 681.742C146.361 673.391 147.054 665.447 148.277 657.219C150.764 640.436 148.848 622.023 140.979 606.869C137.188 599.537 132.826 592.368 128.504 585.361C124.549 578.966 120.432 572.611 117.496 565.645C114.357 558.19 113.297 550.817 113.216 542.752C113.093 534.156 113.419 525.52 114.398 516.966C114.928 512.322 115.499 507.678 116.436 503.075C117.252 499.083 118.556 495.295 119.698 491.384C120.962 487.025 121.655 482.626 122.389 478.186C123.122 473.745 123.897 469.183 123.816 464.661C123.612 455.455 122.185 446.697 120.065 437.735C118.067 429.221 116.232 420.708 114.316 412.153C110.729 396.063 107.997 379.442 113.664 363.474C116.273 356.06 120.065 349.217 123.856 342.373C127.811 335.285 133.152 328.849 135.924 321.15C138.941 312.88 139.43 304.733 138.778 295.975C138.125 287.584 135.965 279.477 134.782 271.167C132.785 257.195 134.701 243.304 143.466 231.857C147.38 226.765 152.069 222.325 156.961 218.211C159.855 215.807 162.668 213.282 165.685 211.082C167.316 210.919 168.825 210.838 170.292 210.797C168.702 211.734 167.153 212.793 165.685 213.934C154.922 222.162 143.425 231.939 138.819 244.933Z" fill="white"/>
<path d="M188.149 575.259C190.31 570.289 188.231 565.075 190.677 560.268C196.018 549.84 193.408 559.046 200.176 549.473C199.931 542.792 197.485 536.478 196.466 533.708C196.466 533.708 193.612 524.461 180.566 508.615C175.021 501.894 149.989 469.061 144.567 462.095C139.145 455.17 137.025 465.476 136.984 467.309C136.943 469.142 137.392 479.978 147.013 495.05C147.013 495.05 155.167 506.089 152.721 507.312C150.275 508.534 120.676 492.036 118.679 491.791C116.681 491.547 92.301 470.038 88.8764 471.749C85.4518 473.46 82.068 475.334 93.2387 488.695C104.409 502.016 126.262 516.559 126.262 516.559L87.4903 494.643C87.4903 494.643 72.528 483.033 70.9788 484.988C69.4296 486.944 61.6835 492.28 80.8857 506.415C99.4356 520.062 115.58 528.535 115.58 528.535L74.8926 511.874C74.8926 511.874 62.8658 505.682 61.235 508.126C59.6042 510.57 58.8296 514.359 67.9211 521.243C77.0126 528.127 105.633 542.1 105.633 542.1C105.633 542.1 69.9596 529.064 68.6957 531.264C66.0865 535.745 69.715 541.041 92.0972 551.428C113.379 561.286 152.925 575.096 165.645 577.499C167.275 577.784 183.257 578.273 188.149 575.259Z" fill="#FFC193"/>
<path d="M238.621 565.115C238.621 565.115 231.894 569.841 226.472 583.039C226.187 583.772 225.86 584.546 225.575 585.32C225.208 586.298 224.882 587.276 224.515 588.335C222.313 595.097 221.457 601.859 220.846 607.643C220.724 608.784 220.642 609.925 220.52 610.984C219.827 618.316 220.887 629.518 217.91 629.967C212.325 630.822 184.276 594.404 179.058 582.387C177.264 578.273 182.523 569.433 183.42 565.889C183.664 564.912 183.991 563.934 184.358 563.038C186.233 558.313 189.168 554.972 189.78 554.32C189.861 554.239 189.902 554.198 189.902 554.198C190.351 553.587 196.67 547.477 197.241 547.029C210.164 535.501 238.621 565.115 238.621 565.115Z" fill="#A98267"/>
<path d="M220.887 607.643C220.765 608.784 220.683 609.925 220.561 610.984C218.889 608.825 217.014 606.788 215.057 604.873C212.896 602.796 211.225 600.392 209.268 598.152C207.352 595.952 205.109 593.997 203.234 591.756C199.279 587.031 195.977 581.817 191.9 577.255C190.922 576.155 189.902 575.055 188.965 573.874C188.068 572.774 187.375 571.592 186.559 570.452C185.662 569.189 185.01 567.804 184.032 566.623C183.828 566.378 183.665 566.174 183.461 565.93C183.706 564.952 184.032 563.975 184.399 563.079C184.521 563.282 184.643 563.527 184.806 563.73C185.662 564.952 186.559 566.134 187.375 567.397C189.006 570.004 190.799 572.448 192.838 574.77C197.037 579.454 200.543 584.587 204.416 589.516C206.332 591.919 208.656 593.956 210.735 596.278C212.733 598.519 214.445 600.963 216.606 603.081C218.033 604.548 219.501 606.055 220.887 607.643Z" fill="white"/>
<path d="M226.472 583.039C226.187 583.772 225.861 584.546 225.575 585.32C223.781 583.976 222.028 582.55 220.316 581.084C218.278 579.332 216.198 577.54 213.997 575.951C212.121 574.607 210.368 573.14 208.738 571.552C202.582 565.726 197.241 558.598 189.78 554.361C189.862 554.28 189.902 554.239 189.902 554.239C190.351 553.628 190.881 553.058 191.411 552.569C198.872 557.009 204.172 564.097 210.45 569.922C212.244 571.592 214.16 573.059 216.117 574.566C218.278 576.195 220.316 577.988 222.354 579.739C223.7 580.921 225.086 581.98 226.472 583.039Z" fill="white"/>
<path d="M542.432 417.286C542.432 417.286 555.886 438.754 555.886 473.42C555.886 508.086 546.795 547.599 547.569 556.561C548.344 565.523 547.692 635.547 542.555 652.453C537.377 669.358 525.676 682.638 525.676 682.638C525.676 682.638 519.276 718.852 499.706 728.547C480.137 738.242 443.282 749.892 416.171 746.389C389.059 742.886 368.634 729.525 340.87 726.021C313.106 722.559 261.085 724.433 225.29 659.622C225.29 659.622 209.105 611.391 219.297 587.887C229.489 564.382 246.245 554.85 280.613 567.682C314.941 580.514 328.436 580.025 350.369 599.782C350.369 599.782 383.148 617.216 397.376 619.905C411.605 622.593 423.387 627.93 426.689 630.374C426.689 630.374 421.674 608.703 430.929 593.59C440.184 578.477 448.582 561.49 448.337 555.054C448.052 548.658 489.759 378.017 542.432 417.286Z" fill="#BF9C83"/>
<path d="M61.4799 653.349C61.6837 654.041 61.9283 654.774 62.2545 655.467C63.9668 659.174 68.9406 656.282 67.2691 652.615C66.1276 650.171 66.1276 647.483 64.6191 645.12C62.336 641.576 58.3814 640.68 54.753 640.435C52.4699 640.272 51.3284 642.92 52.3476 644.957L56.4653 653.186C57.7291 655.752 60.5014 655.141 61.4799 653.349Z" fill="#FFDDC4"/>
<path d="M45.7429 615.628L49.4936 613.754C50.8798 613.061 51.2467 611.024 50.4721 609.558C49.6159 608.01 47.8221 607.521 46.436 608.214L42.6852 610.087C41.2991 610.78 40.9321 612.817 41.7068 614.283C42.5629 615.831 44.3567 616.32 45.7429 615.628Z" fill="#FFDDC4"/>
<path d="M5.82996 642.106C5.25919 640.802 6.52303 639.295 7.0938 638.317C7.66457 637.258 8.19456 636.199 8.64302 635.099C11.5376 635.832 14.5545 637.014 16.7153 639.132C15.4922 639.05 14.2692 639.621 13.7799 641.128C12.1899 646.22 8.19456 649.52 10.763 655.426C11.4561 657.056 13.5353 657.422 14.7992 656.77C20.4661 653.837 26.4591 648.46 24.3391 640.721C22.3007 633.266 13.6984 629.722 7.37918 628.581C5.66688 628.255 4.40304 628.907 3.87304 630.659C2.28305 635.751 -1.71232 639.05 0.856132 644.957C2.44613 648.705 7.46072 645.813 5.82996 642.106Z" fill="#FFDDC4"/>
<path d="M442.222 253.447C442.222 253.447 446.829 250.759 449.438 253.203C452.047 255.647 436.677 270.638 436.677 270.638C436.677 270.638 433.171 254.547 435.943 250.107C438.716 245.667 442.833 250.188 442.222 253.447Z" fill="#FF939C"/>
<path d="M105.062 194.421C105.062 194.421 97.9272 177.353 101.719 176.66C105.469 175.968 118.638 209.086 118.638 209.086C118.638 209.086 89.651 201.998 90.4257 193.607C91.2003 185.174 105.062 194.421 105.062 194.421Z" fill="#FF939C"/>
<path d="M66.6982 235.116L63.8036 235.238C62.5398 235.279 62.7029 237.275 63.9667 237.234L66.8613 237.112C68.1659 237.031 68.0028 235.075 66.6982 235.116Z" fill="#231F20"/>
<path d="M70.1635 231.613C69.1035 230.635 68.0027 230.024 66.4943 230.065C65.2305 230.065 65.3935 232.061 66.6574 232.061C67.5951 232.061 68.2066 232.55 68.8997 233.161C69.8373 234.016 71.1012 232.468 70.1635 231.613Z" fill="#231F20"/>
<path d="M214.69 178.412C214.568 177.883 214.119 176.905 214.241 176.416C214.608 174.95 212.284 174.542 211.918 176.009C211.632 177.068 212.366 178.208 212.448 179.268C212.611 180.897 211.795 182.323 210.817 183.545C209.064 185.663 206.495 186.437 203.886 186.885C200.951 187.374 197.811 187.089 195.732 184.685C194.509 183.3 192.348 180.449 193.449 178.534C194.224 177.231 192.063 176.253 191.288 177.557C189.739 180.205 191.9 183.667 193.531 185.704C195.855 188.678 199.442 189.777 203.111 189.37C206.414 189.003 209.594 188.066 212.04 185.704C213.344 184.441 214.282 182.852 214.649 181.101C214.853 180.286 214.853 179.308 214.69 178.412Z" fill="white"/>
<path d="M244.451 136.862C243.921 135.314 243.269 133.318 241.801 132.381C240.537 131.566 239.029 133.399 240.293 134.214C241.394 134.907 241.801 136.536 242.209 137.677C242.902 139.51 242.413 141.098 241.638 142.768C240.334 145.538 237.969 147.738 235.074 148.757C231.772 149.897 227.532 149.49 224.271 148.309C222.884 147.82 221.335 147.209 220.357 146.068C219.093 144.683 219.419 142.809 219.378 141.098C219.338 139.591 217.014 139.795 217.014 141.302C217.054 143.339 216.932 145.172 218.074 146.964C219.093 148.594 220.928 149.408 222.599 150.182C226.554 151.934 231.691 152.301 235.849 150.997C239.559 149.816 242.494 146.761 244.044 143.217C244.981 141.058 245.226 139.021 244.451 136.862Z" fill="white"/>
<path d="M282.081 150.956C281.673 149.653 280.491 147.168 278.82 147.412C277.393 147.616 277.515 149.734 278.779 149.775C278.86 149.897 278.983 150.019 279.064 150.142C279.227 150.386 279.39 150.671 279.513 150.916C279.88 151.608 280.083 152.423 280.206 153.197C280.491 155.03 280.043 156.863 278.983 158.37C277.23 160.814 273.927 162.729 270.992 163.381C265.529 164.562 259.006 161.262 258.68 155.234C258.598 153.726 256.274 153.93 256.315 155.437C256.723 163.34 265.447 167.414 272.46 165.417C276.292 164.318 280.328 161.588 281.959 157.841C282.937 155.682 282.774 153.197 282.081 150.956Z" fill="white"/>
<path d="M310.538 120.893C309.193 120.201 308.214 122.36 309.56 123.052C309.07 122.808 309.234 122.604 309.234 123.175C309.234 123.46 309.193 123.745 309.193 124.03C309.111 124.6 309.03 125.13 308.744 125.619C308.01 127.045 306.91 128.144 305.442 128.715C302.507 129.896 298.919 130.1 295.902 129.041C292.844 127.941 290.398 124.845 289.991 121.627C289.827 120.364 290.235 119.101 290.765 117.96C291.173 117.064 291.948 115.72 293.089 115.801C294.597 115.924 295.005 113.602 293.497 113.48C289.828 113.235 287.626 117.716 287.626 120.893C287.626 125.374 291.01 129.774 295.168 131.24C299.082 132.625 304.219 132.299 307.807 130.1C309.478 129.081 310.864 127.167 311.313 125.293C311.68 124.03 312.047 121.667 310.538 120.893Z" fill="white"/>
<path d="M350.532 155.682C350.165 156.293 349.961 156.741 349.472 157.27C348.861 157.922 348.045 158.289 347.23 158.533C345.354 159.103 343.479 158.859 341.644 158.207C338.383 157.026 335.692 154.867 334.469 151.608C333.858 150.019 333.654 148.268 333.817 146.598C333.898 145.783 334.143 145.009 334.469 144.235C334.591 143.991 334.714 143.665 334.877 143.461C334.918 143.42 335.121 143.257 335.162 143.217C335.978 142.565 336.915 141.954 337.812 141.424C338.261 141.18 338.709 140.976 339.198 140.772C339.28 140.732 339.402 140.732 339.484 140.691C340.299 141.709 342.011 140.406 341.277 139.143C339.851 136.658 335.529 139.917 334.184 140.935C331.044 143.257 331.044 147.983 331.982 151.404C333.164 155.845 336.793 158.859 340.992 160.366C343.357 161.222 345.64 161.303 348.045 160.651C349.146 160.366 350.043 159.837 350.899 159.063C351.307 158.737 351.633 158.329 351.959 157.963C352.326 157.515 352.448 157.026 352.734 156.537C353.467 155.397 351.307 154.419 350.532 155.682Z" fill="white"/>
<path d="M383.148 156.659C383.107 156.659 383.066 156.659 383.025 156.659H382.862C381.354 156.7 381.558 159.063 383.066 159.022C388.692 158.818 390.445 166.069 388.855 170.387C387.632 173.646 384.615 175.764 381.395 176.742C379.438 177.353 377.521 177.353 375.565 176.823C374.056 176.416 373.485 174.787 372.018 174.339C370.591 173.891 369.612 176.009 371.039 176.498C371.732 176.742 372.262 177.557 372.833 178.046C373.567 178.738 374.545 178.982 375.524 179.227C377.766 179.838 380.008 179.594 382.21 178.942C386.124 177.842 389.671 174.99 391.098 171.12C393.299 165.173 390.323 156.619 383.148 156.659Z" fill="white"/>
<path d="M314.819 270.76C314.004 270.027 313.025 270.76 312.944 271.615C312.903 271.656 312.862 271.737 312.821 271.819C312.699 271.982 312.536 272.145 312.373 272.308C312.006 272.674 311.639 273.082 311.272 273.448C310.212 274.548 309.03 275.485 307.725 276.259C305.075 277.848 301.895 277.889 299 278.744C298.185 277.359 296.799 276.3 296.024 274.915C294.883 272.797 293.415 270.841 292.151 268.804C290.806 266.727 289.338 264.731 287.789 262.776C286.199 260.78 284.405 258.987 283.019 256.869C281.592 254.71 280.287 252.51 279.064 250.27C277.882 248.07 276.414 245.993 275.151 243.834C273.887 241.675 272.664 239.475 271.481 237.234C270.544 235.483 268.954 233.65 268.994 231.531C268.994 231.165 268.831 230.88 268.546 230.717C267.934 229.902 266.304 230.269 266.426 231.531C266.467 231.817 266.548 232.061 266.671 232.265C266.834 234.098 267.853 235.727 268.791 237.275C270.014 239.312 271.074 241.43 272.256 243.508C273.479 245.707 274.824 247.826 276.17 249.944C277.556 252.225 278.82 254.588 280.247 256.828C280.899 257.847 281.511 258.987 282.326 259.883C283.223 260.861 284.079 261.879 284.894 262.898C286.566 264.894 288.156 267.012 289.624 269.171C290.969 271.167 292.274 273.245 293.578 275.281C294.23 276.3 294.72 277.237 295.535 278.133C296.187 278.866 297.044 279.599 297.288 280.577C297.451 281.188 298.226 281.514 298.797 281.27C300.794 280.496 302.955 280.251 305.034 279.762C307.032 279.314 308.867 278.418 310.538 277.237C311.884 276.259 312.984 275.037 314.126 273.896C314.86 273.082 315.96 271.819 314.819 270.76Z" fill="#231F20"/>
<path d="M317.387 225.584C317.51 230.391 314.9 235.32 310.905 237.968C308.5 239.556 305.279 240.086 302.466 240.29C300.998 240.412 299.653 240.249 298.267 239.801C297.492 239.556 295.861 239.23 295.413 238.538C294.557 237.275 292.64 238.66 293.497 239.882C294.149 240.86 295.494 241.308 296.554 241.675C298.063 242.204 299.53 242.611 301.161 242.652C304.708 242.734 308.703 241.919 311.802 240.167C316.816 237.316 319.915 231.083 319.752 225.38C319.711 223.873 317.346 224.077 317.387 225.584Z" fill="#231F20"/>
<path d="M265.61 251.329C264.713 251.655 264.713 252.632 265.162 253.203C265.121 253.203 265.243 253.447 265.284 253.651C265.366 254.058 265.325 254.425 265.284 254.832C265.162 255.851 264.754 256.828 264.265 257.765C263.45 259.313 262.104 260.454 260.637 261.391C258.924 262.49 257.008 263.264 255.01 263.631C254.073 263.794 253.135 263.835 252.197 263.835C251.667 263.835 251.178 263.794 250.648 263.753C250.403 263.713 250.159 263.713 249.873 263.672C249.996 263.672 250.037 263.875 249.833 263.672C248.732 262.653 247.223 264.446 248.324 265.505C249.14 266.279 250.607 266.157 251.627 266.157C253.053 266.197 254.44 266.116 255.867 265.831C258.517 265.301 261.044 264.079 263.205 262.409C265.243 260.861 266.589 258.743 267.323 256.299C267.69 255.28 268.097 250.392 265.61 251.329Z" fill="#231F20"/>
<path d="M339.565 273.937C339.035 273.082 337.935 273.448 337.527 274.1C336.915 275.119 336.752 276.544 336.304 277.644C335.489 279.64 334.51 281.555 333.409 283.429C332.309 285.262 331.004 287.013 329.496 288.521C327.783 290.231 325.704 291.576 323.788 293.001C321.953 294.346 319.956 295.649 317.836 296.423C315.471 297.279 313.066 298.012 310.701 298.908C308.377 299.804 306.012 300.578 303.648 301.393C302.506 301.76 301.324 302.086 300.142 302.248C298.796 302.411 297.451 302.208 296.146 302.208C294.638 302.248 294.842 304.57 296.35 304.57C297.573 304.57 298.756 304.693 299.979 304.652C301.243 304.57 302.506 304.244 303.729 303.878C306.257 303.104 308.703 302.248 311.19 301.312C313.677 300.375 316.164 299.519 318.692 298.704C321.016 297.93 323.299 296.464 325.215 294.998C327.131 293.572 329.129 292.227 330.882 290.557C332.512 289.009 333.899 287.217 335.122 285.343C336.345 283.429 337.405 281.392 338.302 279.314C338.669 278.5 338.995 277.644 339.239 276.748C339.402 276.259 339.484 275.607 339.769 275.159H339.729C339.769 274.752 339.81 274.345 339.565 273.937Z" fill="#231F20"/>
<path d="M331.086 299.927C330.148 299.356 329.088 300.171 329.088 300.945C328.966 301.067 328.803 301.189 328.681 301.312C328.191 301.719 327.661 302.086 327.131 302.452C325.949 303.267 324.767 303.756 323.258 304.448C321.872 305.059 322.687 307.3 324.074 306.648C325.949 305.792 327.743 304.978 329.374 303.756C330.23 303.145 332.921 301.067 331.086 299.927Z" fill="#231F20"/>
<path d="M379.152 261.716C379.193 264.975 378.133 268.234 377.725 271.452C377.236 275.363 376.584 279.192 375.32 282.899C373.322 288.846 370.509 294.672 367.615 300.212C365.046 305.141 362.192 309.988 358.442 314.143C354.487 318.543 349.472 321.883 344.254 324.653C341.359 326.201 338.424 327.342 335.285 328.279C333.817 328.727 332.349 329.053 330.882 329.501C330.352 329.664 329.822 329.745 329.251 329.786L329.332 327.79C328.843 327.708 328.313 327.627 327.783 327.505C328.843 327.464 329.903 327.342 330.922 326.975C332.39 326.445 334.021 326.201 335.529 325.712C338.709 324.735 341.685 323.39 344.58 321.72C347.189 320.172 349.839 318.624 352.204 316.71C354.365 314.958 356.322 312.962 358.034 310.803C361.54 306.444 364.231 301.515 366.718 296.505C368.145 293.612 369.49 290.68 370.795 287.706C372.099 284.691 373.322 281.595 374.056 278.377C374.749 275.322 375.035 272.226 375.565 269.13C375.972 266.768 376.747 264.242 376.706 261.839C376.788 260.413 379.111 260.209 379.152 261.716Z" fill="#231F20"/>
<path d="M196.833 321.272C195.325 319.968 192.675 319.561 190.799 320.213C190.147 320.417 189.617 320.783 189.128 321.272C187.171 321.761 185.662 323.39 184.439 324.938C182.849 327.016 181.748 329.378 180.77 331.782C180.036 333.615 179.343 335.489 178.976 337.444C178.854 338.096 178.895 338.707 179.058 339.236C179.098 339.481 179.139 339.685 179.302 339.888C179.465 340.092 179.71 340.255 179.995 340.336C180.403 340.499 180.892 340.54 181.504 340.377C181.871 340.255 182.238 339.847 182.278 339.481C182.401 337.729 182.523 335.978 183.135 334.307C183.502 333.248 183.991 332.311 184.521 331.334C184.888 330.845 185.255 330.356 185.621 329.908C185.988 329.378 186.396 328.849 186.763 328.279C187.048 329.012 187.415 329.704 187.864 330.315C190.31 333.615 195.61 335 198.505 331.456C200.951 328.523 199.442 323.553 196.833 321.272ZM196.181 324.246C196.018 324.409 195.936 324.572 195.855 324.775C195.773 324.816 195.691 324.857 195.61 324.938C195.406 325.101 195.243 325.264 195.08 325.468C194.713 325.427 194.346 325.427 193.979 325.346C193.531 324.653 193.041 324.001 192.552 323.349C192.593 323.268 192.715 323.064 192.756 322.901C192.838 322.698 192.838 322.453 192.797 322.209C193.816 322.25 194.917 322.657 195.528 323.227C195.814 323.472 196.099 323.798 196.303 324.164C196.262 324.164 196.221 324.205 196.181 324.246Z" fill="#231F20"/>
<path d="M187.497 341.273C187.497 341.232 187.497 341.11 187.497 341.07C188.231 340.133 187.008 338.625 185.866 339.399C184.847 340.092 185.173 341.558 185.255 342.617C185.336 344.125 187.701 343.921 187.619 342.414C187.619 342.129 187.578 341.843 187.538 341.558C187.497 341.477 187.497 341.395 187.497 341.273Z" fill="#231F20"/>
<path d="M193.938 340.296C193.938 340.255 193.898 340.255 193.898 340.214C193.857 340.133 193.816 340.01 193.775 339.929C193.694 339.684 193.612 339.44 193.571 339.196C193.408 338.625 193.205 338.177 192.756 337.729C192.308 337.281 191.451 337.444 191.085 337.892C190.677 338.381 190.799 338.951 191.125 339.399C191.166 339.481 191.207 339.562 191.207 339.644C191.288 339.847 191.329 340.051 191.37 340.255C191.492 340.744 191.655 341.232 191.941 341.64C192.878 342.903 194.795 341.558 193.938 340.296Z" fill="#231F20"/>
<path d="M199.85 336.629C199.809 336.589 199.768 336.548 199.728 336.507C199.646 336.385 199.524 336.222 199.442 336.1C199.198 335.733 198.872 335.407 198.505 335.163C197.975 334.796 197.282 334.796 196.833 335.326C196.466 335.774 196.466 336.629 196.996 336.996C197.118 337.077 197.241 337.159 197.363 337.281C197.363 337.281 197.363 337.281 197.404 337.322C197.445 337.403 197.526 337.444 197.567 337.526C197.812 337.851 198.056 338.177 198.342 338.462C198.79 338.911 199.605 338.748 200.013 338.3C200.421 337.77 200.298 337.077 199.85 336.629Z" fill="#231F20"/>
<path d="M204.987 331.741C204.334 331.171 203.519 331.13 202.704 330.926C202.092 330.763 201.44 331.293 201.358 331.904C201.236 332.596 201.684 333.085 202.337 333.248C202.581 333.33 202.867 333.37 203.111 333.411C203.152 333.411 203.315 333.493 203.397 333.493C203.397 333.493 203.437 333.493 203.437 333.533C203.437 333.533 203.478 333.574 203.519 333.574C204.008 333.982 204.783 333.9 205.191 333.411C205.557 332.882 205.476 332.148 204.987 331.741Z" fill="#231F20"/>
<path d="M238.948 298.216C237.521 296.912 234.911 296.545 233.118 297.157C232.506 297.36 231.976 297.727 231.528 298.175C229.652 298.664 228.184 300.252 227.002 301.76C225.453 303.796 224.393 306.078 223.455 308.44C222.762 310.233 222.069 312.066 221.743 313.98C221.621 314.591 221.661 315.243 221.825 315.732C221.865 315.976 221.906 316.18 222.069 316.384C222.232 316.587 222.477 316.75 222.721 316.832C223.088 316.995 223.578 317.035 224.189 316.873C224.556 316.791 224.882 316.384 224.923 315.976C225.045 314.265 225.168 312.555 225.738 310.925C226.105 309.907 226.554 308.97 227.043 308.033C227.369 307.544 227.777 307.096 228.103 306.607C228.47 306.078 228.837 305.548 229.204 305.018C229.448 305.711 229.856 306.403 230.304 307.015C232.669 310.233 237.806 311.577 240.619 308.155C242.902 305.304 241.475 300.456 238.948 298.216ZM238.336 301.149C238.173 301.312 238.091 301.474 238.01 301.678C237.928 301.719 237.847 301.76 237.765 301.841C237.561 302.004 237.398 302.167 237.235 302.33C236.909 302.289 236.542 302.289 236.175 302.208C235.727 301.556 235.278 300.904 234.789 300.293C234.83 300.212 234.952 300.008 234.993 299.886C235.074 299.682 235.074 299.438 235.034 299.234C236.012 299.275 237.072 299.682 237.684 300.212C237.969 300.456 238.214 300.782 238.458 301.108C238.377 301.067 238.336 301.108 238.336 301.149Z" fill="#231F20"/>
<path d="M229.897 317.769C229.897 317.728 229.897 317.606 229.897 317.565C230.631 316.669 229.408 315.162 228.307 315.936C227.328 316.628 227.654 318.054 227.695 319.072C227.777 320.539 230.06 320.335 229.978 318.869C229.978 318.583 229.938 318.339 229.897 318.054C229.897 317.972 229.897 317.85 229.897 317.769Z" fill="#231F20"/>
<path d="M236.134 316.832C236.134 316.791 236.094 316.791 236.094 316.75C236.053 316.669 236.012 316.587 235.971 316.465C235.89 316.221 235.849 315.976 235.768 315.732C235.604 315.162 235.401 314.714 234.993 314.306C234.585 313.858 233.729 314.021 233.403 314.469C233.036 314.958 233.118 315.488 233.444 315.936C233.484 316.017 233.525 316.099 233.525 316.18C233.607 316.384 233.648 316.547 233.688 316.75C233.811 317.239 233.974 317.687 234.259 318.095C235.115 319.357 236.95 318.054 236.134 316.832Z" fill="#231F20"/>
<path d="M241.842 313.247C241.801 313.206 241.76 313.166 241.72 313.125C241.638 313.003 241.516 312.88 241.434 312.717C241.19 312.392 240.863 312.066 240.537 311.821C240.007 311.495 239.355 311.455 238.947 311.984C238.58 312.432 238.58 313.247 239.11 313.614C239.233 313.695 239.355 313.777 239.477 313.899C239.477 313.899 239.477 313.899 239.518 313.94C239.559 314.021 239.64 314.062 239.681 314.143C239.926 314.469 240.13 314.754 240.415 315.039C240.863 315.488 241.638 315.325 242.005 314.877C242.372 314.347 242.25 313.695 241.842 313.247Z" fill="#231F20"/>
<path d="M246.816 308.44C246.164 307.911 245.389 307.829 244.614 307.626C244.003 307.463 243.391 307.992 243.31 308.562C243.187 309.214 243.636 309.744 244.247 309.907C244.492 309.988 244.737 310.029 245.022 310.07C245.063 310.07 245.226 310.151 245.307 310.151C245.307 310.151 245.348 310.151 245.348 310.192C245.348 310.192 245.389 310.233 245.43 310.233C245.919 310.64 246.653 310.558 247.02 310.07C247.387 309.581 247.305 308.848 246.816 308.44Z" fill="#231F20"/>
<path d="M225.453 326.283C224.067 324.694 222.762 323.187 221.661 321.394C217.911 315.406 214.282 309.051 213.956 301.8C213.874 300.293 211.551 300.497 211.591 302.004C211.754 305.344 212.57 308.563 213.793 311.658C215.057 314.877 216.851 317.769 218.563 320.783C219.745 322.779 220.927 324.653 222.477 326.405C223.129 327.138 223.781 327.912 224.434 328.645C224.719 328.971 225.004 329.297 225.249 329.623C225.331 329.745 225.412 329.827 225.494 329.949C225.534 329.989 225.534 329.989 225.534 330.03C225.494 329.867 225.453 329.582 225.575 329.175C225.086 330.601 227.247 331.578 227.736 330.152C228.184 328.767 226.268 327.219 225.453 326.283Z" fill="#231F20"/>
<path d="M225.534 330.03C225.575 330.234 225.657 330.275 225.534 330.03V330.03Z" fill="#231F20"/>
<path d="M230.549 339.155C229.53 338.137 227.491 339.399 226.554 339.929C224.637 340.947 223.577 342.74 222.517 344.491C221.743 345.795 223.863 346.732 224.678 345.469C225.412 344.247 226.146 343.025 227.369 342.21C227.736 341.966 228.103 341.762 228.511 341.599C228.714 341.518 228.918 341.395 229.163 341.314C229.285 341.273 229.407 341.232 229.448 341.232C230.386 341.681 231.487 340.092 230.549 339.155Z" fill="#231F20"/>
<path d="M250.322 350.928C250.281 350.928 250.24 350.887 250.24 350.887C249.466 350.479 248.487 351.213 248.569 352.068C248.691 353.249 247.427 354.431 246.734 355.245C245.633 356.631 244.573 357.893 243.228 359.034C240.537 361.356 237.724 363.719 234.667 365.47C233.117 366.366 231.446 366.855 229.734 367.344C227.817 367.874 225.942 368.444 224.026 368.973C222.273 369.462 220.479 369.951 218.644 370.033C216.687 370.114 214.69 369.788 212.733 369.707C211.224 369.625 210.817 371.947 212.325 372.029C214.364 372.11 216.402 372.395 218.44 372.395C220.479 372.395 222.477 371.784 224.434 371.295C228.47 370.236 232.71 369.34 236.338 367.222C238.01 366.244 239.559 365.022 241.108 363.8C242.698 362.537 244.288 361.274 245.756 359.93C247.02 358.749 248.039 357.404 249.14 356.06C249.996 355.001 250.852 353.82 250.933 352.475C251.137 351.864 250.893 351.253 250.322 350.928Z" fill="#231F20"/>
<path d="M241.434 372.029C240.007 373.658 237.928 374.636 235.849 375.124C234.463 375.491 232.098 374.758 231.079 376.021C230.182 377.161 231.772 378.546 232.751 377.691C232.791 377.691 232.791 377.691 232.832 377.65C233.077 377.609 233.321 377.609 233.566 377.609C233.933 377.609 234.3 377.609 234.626 377.609C235.727 377.609 236.787 377.283 237.806 376.958C239.844 376.265 241.801 375.084 243.228 373.495C244.247 372.354 242.454 370.888 241.434 372.029Z" fill="#231F20"/>
<path d="M187.415 404.536C183.216 402.947 178.976 401.277 174.94 399.321C174.165 398.955 173.391 398.507 172.657 398.059H172.616C172.575 398.14 172.535 398.222 172.494 398.303C172.494 398.303 172.494 398.303 172.494 398.344V398.384C172.453 398.507 172.453 398.588 172.412 398.71C172.372 398.833 172.372 398.955 172.331 399.077C172.331 399.362 172.331 399.607 172.372 399.892C172.372 399.973 172.372 400.014 172.372 400.055C172.372 400.055 172.372 400.095 172.372 400.136C172.412 400.34 172.494 400.543 172.535 400.747C172.657 400.829 172.779 400.869 172.902 400.951C174.899 402.01 177.019 402.865 179.098 403.721C181.3 404.617 183.461 405.554 185.703 406.409C189.372 407.794 193.041 409.098 196.507 410.85C196.466 409.342 196.466 408.487 196.466 408.487C196.751 408.568 197.118 408.65 197.567 408.772C194.387 407.061 190.881 405.798 187.415 404.536Z" fill="#231F20"/>
<path d="M331.779 380.665C330.719 380.013 329.74 379.32 328.803 378.668C328.069 376.224 327.253 373.78 326.642 371.336C326.356 370.155 326.356 368.933 326.071 367.751C325.826 366.651 325.419 365.592 325.174 364.492C324.603 361.967 323.992 359.401 323.706 356.793C323.095 351.498 322.443 346.243 321.423 341.029C321.219 339.929 321.301 338.829 321.301 337.688C321.26 336.589 320.852 335.611 320.771 334.552C320.649 332.922 320.282 331.334 320.037 329.704C320.812 329.582 321.546 329.501 322.361 329.501C322.524 331.252 322.85 333.004 323.176 334.715C323.421 335.896 323.666 336.955 323.625 338.137C323.584 339.196 323.625 340.173 323.829 341.232C324.848 346.447 325.337 351.742 326.112 356.997C326.479 359.563 326.927 362.252 327.702 364.737C328.395 367.018 328.558 369.34 329.169 371.621C329.944 374.636 331.004 377.65 331.779 380.665Z" fill="white"/>
<path d="M352.53 388.852C351.674 388.649 350.859 388.445 350.043 388.241C349.962 387.63 349.921 387.06 349.88 386.449C349.595 383.801 349.391 381.153 349.187 378.465C348.82 373.047 348.535 367.629 347.923 362.211C347.312 356.997 346.537 351.742 346.089 346.487C345.885 343.962 345.477 341.477 345.355 338.951C345.314 337.892 345.192 336.792 345.151 335.692C345.925 335.937 346.7 336.181 347.475 336.426C347.556 337.607 347.679 338.788 347.76 339.888C347.964 342.414 348.249 344.939 348.535 347.424C349.105 352.679 349.839 357.934 350.41 363.189C350.981 368.607 351.225 374.025 351.633 379.442C351.837 382.009 352.041 384.616 352.285 387.182C352.367 387.793 352.449 388.323 352.53 388.852Z" fill="white"/>
<path d="M376.339 367.629C376.095 373.047 375.32 378.424 375.075 383.842C374.953 386.53 375.116 389.219 375.116 391.908C374.342 391.867 373.526 391.826 372.752 391.785C372.711 389.26 372.629 386.734 372.711 384.168C372.915 378.913 373.649 373.739 373.934 368.485C374.219 363.026 373.73 357.69 372.996 352.272C372.507 348.606 372.262 344.858 371.651 341.192C372.425 341.232 373.241 341.273 374.015 341.314C374.545 344.736 374.79 348.239 375.279 351.661C376.054 356.997 376.625 362.252 376.339 367.629Z" fill="white"/>
<path d="M398.395 349.95C398.355 352.557 398.191 355.164 398.314 357.771C398.436 360.215 398.844 362.659 399.007 365.104C399.292 370.481 399.415 375.898 399.618 381.276L399.904 389.504C399.904 389.912 399.904 390.319 399.904 390.767C399.129 390.889 398.355 391.011 397.539 391.134C397.539 390.523 397.58 389.912 397.539 389.3L397.254 381.479C397.05 376.102 397.009 370.684 396.642 365.307C396.479 362.741 396.031 360.174 395.949 357.567C395.868 355.083 396.031 352.638 396.031 350.154C396.031 347.587 395.949 345.021 396.031 342.454C396.071 341.843 396.071 341.232 396.071 340.581C396.846 340.499 397.661 340.418 398.436 340.336C398.436 340.825 398.395 341.355 398.395 341.843C398.314 344.532 398.436 347.221 398.395 349.95Z" fill="white"/>
<path d="M422.979 337.933C423.061 340.784 422.775 343.595 422.694 346.447C422.531 352.15 422.734 357.853 422.408 363.556C422.245 366.489 422.041 369.422 421.674 372.314C421.307 375.206 420.696 378.057 420.288 380.909C420.125 382.09 419.962 383.272 419.84 384.412C419.024 384.82 418.168 385.227 417.312 385.634C417.557 383.638 417.801 381.683 418.127 379.687C418.535 376.795 419.147 373.943 419.473 371.051C419.799 368.281 420.003 365.47 420.125 362.7C420.41 356.956 420.166 351.253 420.41 345.51C420.533 342.658 420.818 339.766 420.574 336.874C420.574 336.711 420.533 336.507 420.533 336.344C421.307 336.14 422.082 335.978 422.857 335.774C422.897 336.507 422.938 337.2 422.979 337.933Z" fill="white"/>
<path d="M441.651 332.148C441.733 340.255 441.488 348.32 441.284 356.427C441.203 359.319 441.162 362.252 441.121 365.144C440.387 366.326 439.572 367.507 438.716 368.688C438.797 364.533 438.838 360.378 438.96 356.223C439.164 348.157 439.409 340.092 439.287 332.026C440.143 331.985 440.917 332.026 441.651 332.148Z" fill="white"/>
<path d="M198.79 213.608C197.608 215.807 196.751 218.211 196.018 220.492C194.183 226.195 192.919 232.102 192.552 238.049C192.104 245.015 192.471 252.062 191.9 259.028C191.37 265.261 189.535 271.208 186.763 276.789C185.377 279.559 183.828 282.207 182.156 284.814C181.952 285.099 181.789 285.384 181.585 285.669C179.384 286.973 177.182 288.276 175.062 289.62C175.348 289.335 175.633 289.009 175.959 288.724C177.264 287.38 178.487 286.117 179.506 284.569C180.485 283.103 181.422 281.636 182.278 280.088C184.072 276.952 185.703 273.734 186.967 270.352C189.291 264.038 189.78 257.602 189.861 250.962C189.902 247.459 189.902 243.956 190.065 240.493C190.188 237.153 190.351 233.731 191.044 230.472C192.022 225.828 193.123 221.144 194.876 216.704C195.365 215.441 195.895 214.219 196.548 212.997C197.322 213.16 198.097 213.363 198.79 213.608Z" fill="white"/>
<path d="M461.261 515.988C459.834 519.084 457.429 521.528 455.758 524.461C453.964 527.598 453.108 531.183 451.599 534.441C450.131 537.66 448.378 541.244 447.604 544.911C447.237 543.118 446.911 541.367 446.584 539.574C446.34 538.189 446.095 536.804 445.81 535.46C445.443 533.708 445.484 531.794 445.321 530.042C445.076 526.62 444.831 523.239 444.546 519.817C443.975 513.137 443.404 506.497 443.445 499.735C443.486 497.005 443.527 494.276 443.486 491.506C443.405 488.94 443.364 486.17 444.261 483.726C444.342 483.481 444.465 483.196 444.587 482.952C445.239 481.567 443.119 480.63 442.426 481.974C440.184 486.577 441.285 492.239 441.162 497.168C440.958 503.849 441.203 510.57 441.937 517.21C442.304 520.551 442.508 523.932 442.752 527.272C442.997 530.572 443.16 533.953 443.771 537.211C444.261 539.9 444.587 542.67 445.28 545.318C445.728 547.069 445.932 548.862 446.544 550.613C446.748 551.143 447.033 551.795 447.441 552.202C447.278 553.261 447.114 554.361 447.074 555.42C446.911 558.516 446.87 561.694 445.932 564.667C444.179 570.33 440.388 575.055 437.289 579.984C434.068 585.076 431.541 590.697 429.421 596.319C427.219 602.185 425.874 608.254 425.018 614.446C424.569 617.787 424.406 621.249 425.018 624.549C425.262 625.811 425.588 627.074 425.833 628.296C425.874 628.541 425.955 628.785 425.996 629.03C423.428 626.422 420.085 624.589 416.742 623.204C411.931 621.168 406.672 619.742 401.535 618.805C398.151 618.194 394.767 617.786 391.505 616.809C388.325 615.913 385.227 614.568 382.088 613.509C379.112 612.491 376.136 611.635 373.241 610.495C370.265 609.313 367.493 607.806 364.843 606.055C362.193 604.262 359.624 602.307 357.015 600.474C354.365 598.6 351.715 596.726 349.146 594.771C346.578 592.816 343.887 591.023 341.237 589.109C338.954 587.479 336.426 585.891 333.613 585.442C332.105 585.198 331.697 587.52 333.206 587.764C336.141 588.212 338.465 590.168 340.87 591.716C343.643 593.508 346.252 595.504 348.861 597.5C351.47 599.455 354.12 601.289 356.77 603.162C359.339 604.996 361.866 606.91 364.516 608.621C367.166 610.332 369.939 611.717 372.915 612.858C375.809 613.998 378.826 614.813 381.762 615.831C384.86 616.89 387.877 618.112 391.016 619.049C394.278 620.027 397.702 620.434 401.045 621.045C405.938 621.901 410.83 623.286 415.396 625.16C419.514 626.83 423.754 629.192 426.159 633.062C426.159 633.103 426.2 633.103 426.2 633.144C426.852 634.203 427.953 635.018 429.095 635.669C430.888 638.317 432.071 641.372 433.538 644.142C435.618 648.175 437.656 652.127 439.287 656.363C442.385 664.347 443.404 673.757 440.347 681.904C439.817 683.33 441.937 684.308 442.508 682.882C445.728 674.328 444.831 664.673 441.774 656.2C440.102 651.597 437.86 647.32 435.618 643.002C434.68 641.21 433.824 639.336 432.927 637.543C434.639 638.358 436.392 639.132 437.982 640.15C444.179 644.02 449.683 648.868 454.004 654.774C454.901 655.997 456.818 654.652 455.921 653.43C451.803 647.727 446.544 643.002 440.673 639.132C438.431 637.665 436.107 636.525 433.701 635.384C432.641 634.895 431.622 634.366 430.603 633.796C429.951 632.899 429.258 632.044 428.442 631.27C428.687 629.966 428.157 628.419 427.912 627.278C427.423 625.119 427.015 623.082 426.893 620.882C426.73 617.746 427.219 614.609 427.79 611.513C428.32 608.377 428.932 605.321 429.828 602.266C431.541 596.278 434.191 590.657 436.963 585.117C439.572 579.902 443.364 575.462 446.054 570.289C448.011 566.5 448.949 562.59 449.194 558.353C449.316 556.235 449.398 554.117 449.764 551.999C450.091 549.962 450.458 547.966 450.417 545.888C450.417 545.481 450.213 545.196 449.968 545.033C450.131 544.34 450.335 543.648 450.539 542.996C451.477 540.104 452.781 537.293 454.045 534.523C455.472 531.427 456.288 528.046 458 525.072C459.631 522.221 461.954 519.899 463.341 516.884C464.034 515.622 461.873 514.644 461.261 515.988Z" fill="white"/>
<path d="M455.431 287.991C454.249 288.928 455.594 290.842 456.776 289.906C456.817 289.865 456.858 289.865 456.858 289.865L456.899 289.906C457.225 290.313 457.388 290.802 457.551 291.291C457.836 292.187 458.081 293.164 458.122 294.101C458.203 295.609 460.527 295.405 460.486 293.898C460.364 291.698 458.733 285.343 455.431 287.991Z" fill="#231F20"/>
<path d="M486.212 327.749C485.356 329.012 483.888 329.827 482.38 329.297C480.83 328.767 480.993 327.545 481.931 326.486C482.95 325.346 481.116 323.838 480.096 324.979C478.262 327.056 478.384 329.745 480.871 331.212C483.317 332.637 486.538 331.456 488.047 329.256C488.903 327.993 487.068 326.486 486.212 327.749Z" fill="#231F20"/>
<path d="M474.266 295.934C474.226 295.894 474.144 295.853 474.063 295.812C473.818 295.446 473.369 295.242 472.962 295.242C472.636 295.283 472.35 295.405 472.146 295.649C471.943 295.894 471.861 296.179 471.902 296.505C471.902 296.586 471.902 296.668 471.902 296.79C471.943 296.912 471.943 297.034 471.983 297.157C472.106 297.401 472.146 297.523 472.35 297.686C472.676 298.012 473.166 298.012 473.573 298.012C474.226 297.971 474.715 297.36 474.633 296.749C474.674 296.464 474.511 296.138 474.266 295.934Z" fill="#231F20"/>
<path d="M224.393 737.753C224.556 739.26 226.921 739.138 226.758 737.631C226.758 737.59 226.758 737.549 226.758 737.508H226.798C227.288 737.468 227.818 737.59 228.307 737.712C229.245 737.916 230.142 738.282 230.998 738.73C232.343 739.464 233.403 737.386 232.099 736.653C230.182 735.594 223.945 733.557 224.393 737.753Z" fill="#231F20"/>
<path d="M274.498 732.987C275.11 734.372 275.028 736.042 273.765 737.06C272.501 738.079 271.563 737.305 271.155 735.92C270.748 734.453 268.505 735.186 268.913 736.653C269.688 739.301 272.052 740.645 274.58 739.341C277.108 738.038 277.801 734.698 276.741 732.253C276.129 730.868 273.887 731.602 274.498 732.987Z" fill="#231F20"/>
<path d="M241.231 726.102C241.149 726.143 241.108 726.143 241.027 726.184C240.578 726.184 240.17 726.428 239.967 726.836C239.804 727.121 239.804 727.447 239.885 727.732C239.967 728.017 240.211 728.261 240.456 728.424C240.537 728.465 240.619 728.506 240.701 728.547C240.823 728.587 240.945 728.669 241.067 728.669C241.353 728.71 241.475 728.71 241.72 728.628C242.168 728.506 242.413 728.139 242.617 727.773C242.943 727.202 242.657 726.469 242.127 726.184C241.842 726.021 241.516 726.021 241.231 726.102Z" fill="#231F20"/>
<path d="M487.883 281.025C486.375 281.066 486.579 283.429 488.087 283.388C489.636 283.306 489.392 280.984 487.883 281.025Z" fill="#231F20"/>
<path d="M531.669 379.931C531.832 379.483 531.669 378.954 531.302 378.628C530.772 378.22 530.079 378.302 529.631 378.791C529.264 379.198 528.978 379.728 529.06 380.298C529.101 380.664 529.264 381.031 529.59 381.276C529.916 381.52 530.242 381.601 530.65 381.601C531.302 381.601 531.791 380.909 531.71 380.339C531.751 380.176 531.71 380.053 531.669 379.931Z" fill="#231F20"/>
<path d="M549.404 380.664C547.895 380.705 548.099 383.068 549.608 383.027C551.116 382.946 550.912 380.624 549.404 380.664Z" fill="#231F20"/>
<path d="M157.572 178.657C157.532 177.394 155.982 177.312 155.412 178.168C155.126 178.331 154.922 178.657 154.841 178.982C154.515 180.327 153.822 181.427 153.496 182.689C152.966 182.567 152.476 182.364 151.946 182.119C150.56 181.508 149.582 183.626 150.968 184.278C152.15 184.808 153.292 185.134 154.596 185.134C155.289 185.134 155.656 184.441 155.656 183.871C155.656 182.608 156.472 181.386 156.961 180.164C157.369 179.879 157.572 179.349 157.572 178.657Z" fill="#231F20"/>
<path d="M73.262 724.921C69.0628 722.599 63.5182 718.811 63.6405 713.434C63.6813 711.926 61.3167 712.13 61.2759 713.637C61.1536 719.91 67.3913 724.351 72.2836 727.08C73.629 727.813 74.6074 725.654 73.262 724.921Z" fill="#231F20"/>
<path d="M84.922 730.828C84.5958 730.868 84.3105 731.031 84.1066 731.235C83.9028 731.479 83.8212 731.765 83.862 732.09V732.539C83.9028 733.19 84.5143 733.679 85.1258 733.598C85.452 733.557 85.7374 733.394 85.9412 733.19C86.1451 732.946 86.2266 732.661 86.1858 732.335V731.928C86.1451 731.235 85.5335 730.746 84.922 730.828Z" fill="#231F20"/>
<path d="M76.7275 730.543C76.279 730.176 75.4229 730.176 75.0559 730.705C74.2406 732.009 73.0175 732.946 72.2021 734.249C71.876 734.779 71.8352 735.471 72.3652 735.92C72.8136 736.286 73.6698 736.286 74.0367 735.757C74.8521 734.453 76.0752 733.516 76.8905 732.213C77.2575 731.683 77.2982 730.991 76.7275 730.543Z" fill="#231F20"/>
<path d="M569.096 579.862C567.587 579.902 567.791 582.265 569.299 582.224C570.808 582.143 570.604 579.78 569.096 579.862Z" fill="#231F20"/>
<path d="M581 578.476C580.959 577.825 580.347 577.377 579.736 577.417C579.165 577.458 578.757 577.743 578.35 578.11C577.942 578.476 577.82 579.047 577.82 579.576C577.82 580.228 578.513 580.717 579.084 580.635C579.41 580.595 579.695 580.432 579.899 580.228C580.021 580.065 580.103 579.902 580.144 579.739C580.674 579.576 581.081 579.047 581 578.476Z" fill="#231F20"/>
<path d="M570.726 589.842C570.563 589.72 570.4 589.638 570.237 589.597C570.074 589.068 569.544 588.701 569.014 588.742C568.361 588.783 567.913 589.394 567.954 590.005C567.995 590.575 568.28 590.982 568.647 591.39C569.014 591.797 569.585 591.919 570.115 591.919C570.767 591.919 571.256 591.227 571.175 590.656C571.134 590.331 570.971 590.045 570.726 589.842Z" fill="#231F20"/>
<path d="M577.779 542.751C576.841 543.363 576.148 543.24 575.333 542.507C574.191 541.489 572.683 543.322 573.824 544.34C575.455 545.766 577.331 545.888 579.124 544.666C580.388 543.811 579.002 541.896 577.779 542.751Z" fill="#231F20"/>
<path d="M16.756 508.534C15.2475 508.574 15.4514 510.937 16.9599 510.896C18.4683 510.815 18.2645 508.493 16.756 508.534Z" fill="#231F20"/>
<path d="M25.1544 413.579C24.5021 413.62 24.0536 414.231 24.0944 414.842L24.1351 415.697C24.1759 416.349 24.7874 416.838 25.399 416.756C26.0513 416.716 26.4997 416.105 26.459 415.493L26.4182 414.638C26.4182 414.027 25.7659 413.538 25.1544 413.579Z" fill="#231F20"/>
<path d="M7.78683 462.91C7.54221 462.706 7.25683 462.625 6.93068 462.665H6.52299C5.87068 462.706 5.38145 463.317 5.46299 463.928C5.50376 464.254 5.62607 464.539 5.87068 464.743C6.1153 464.946 6.40068 465.028 6.72683 464.987H7.13452C7.78683 464.946 8.27606 464.335 8.19452 463.724C8.15375 463.399 8.03144 463.113 7.78683 462.91Z" fill="#231F20"/>
<path d="M15.4515 457.247C14.473 458.225 12.4753 457.899 12.353 456.392C12.2307 454.885 9.90689 455.088 9.98842 456.596C10.2738 460.343 14.8807 461.117 17.2861 458.755C18.3461 457.655 16.5115 456.188 15.4515 457.247Z" fill="#231F20"/>
<path d="M549.975 700.072C549.812 700.072 549.648 700.072 549.485 700.072C549.485 699.869 549.485 699.665 549.445 699.461C549.404 698.809 548.792 698.321 548.181 698.402C547.528 698.443 547.08 699.054 547.121 699.665C547.162 700.52 547.161 701.335 547.814 701.946C548.385 702.516 549.445 702.394 550.178 702.353C550.831 702.313 551.32 701.702 551.238 701.091C551.198 700.48 550.627 700.032 549.975 700.072Z" fill="#231F20"/>
<path d="M537.255 726.224C535.746 726.265 535.95 728.628 537.459 728.587C538.967 728.506 538.763 726.143 537.255 726.224Z" fill="#231F20"/>
<path d="M550.872 723.984C549.363 724.025 549.567 726.388 551.075 726.347C552.584 726.306 552.38 723.943 550.872 723.984Z" fill="#231F20"/>
<path d="M557.476 693.269C557.517 693.229 557.517 693.229 557.558 693.188C558.006 692.699 557.884 691.925 557.395 691.518C556.865 691.11 556.172 691.192 555.723 691.681C555.152 692.292 554.133 693.147 554.215 694.084C554.378 695.428 555.805 695.347 556.783 695.306C557.435 695.266 557.925 694.654 557.843 694.043C557.843 693.718 557.68 693.432 557.476 693.269Z" fill="#231F20"/>
<path d="M198.26 321.842C196.955 320.539 195.08 320.009 193.245 320.05C192.022 320.091 189.943 320.58 189.128 321.679C189.005 321.761 188.883 321.883 188.802 322.005C187.945 322.901 187.66 324.327 187.293 325.631C186.967 326.771 187.048 327.83 187.456 328.808C187.823 330.112 188.598 331.293 189.576 332.189C192.226 334.674 196.711 334.511 198.79 331.456C200.747 328.564 200.706 324.327 198.26 321.842ZM195.895 324.246C195.895 324.327 195.895 324.409 195.895 324.49C195.855 324.816 195.651 324.938 195.406 325.142C194.713 325.346 194.102 325.386 193.327 324.938C192.919 324.694 192.634 324.449 192.43 324.124C192.185 323.675 192.022 323.146 191.981 322.657C192.471 322.494 192.919 322.413 193.449 322.372C194.509 322.29 195.488 322.657 196.303 323.268C196.058 323.472 195.895 323.798 195.895 324.246Z" fill="#231F20"/>
<path d="M240.66 300.212C240.537 300.008 240.415 299.723 240.252 299.478C239.885 299.03 239.518 298.582 239.07 298.216C237.317 297.116 235.482 296.912 233.444 297.401C233.158 297.482 232.914 297.564 232.669 297.686C232.587 297.686 232.547 297.686 232.465 297.686C231.609 297.727 230.997 298.216 230.59 298.827C230.549 298.867 230.467 298.949 230.427 298.99C227.614 302.248 229.53 306.974 232.669 309.214C233.688 309.948 235.034 310.436 236.338 310.559C238.336 310.273 240.334 309.092 241.23 307.259C241.312 307.096 241.394 306.933 241.516 306.811C241.924 305.304 241.638 303.715 241.312 302.248C241.149 301.597 240.945 300.904 240.66 300.212ZM238.214 301.923C237.928 302.371 237.439 302.493 236.95 302.574C235.767 301.963 234.504 301.149 234.585 300.09C234.585 299.886 234.585 299.682 234.544 299.519C235.686 299.316 236.868 299.56 237.806 300.171C238.214 300.456 238.458 300.986 238.662 301.556C238.499 301.637 238.336 301.76 238.214 301.923Z" fill="#231F20"/>
<path d="M370.102 422.093C368.104 423.396 368.471 426.94 368.552 428.977C368.593 430.484 370.958 430.28 370.917 428.773C370.876 427.959 370.876 427.144 370.917 426.329C370.958 425.759 370.958 424.374 371.488 424.007C372.751 423.152 371.406 421.237 370.102 422.093Z" fill="white"/>
<path d="M399.618 434.232L399.822 439.365C399.863 440.872 402.228 440.668 402.187 439.161L401.983 434.028C401.901 432.521 399.537 432.725 399.618 434.232Z" fill="white"/>
<path d="M392.198 451.667C390.812 453.337 391.342 455.414 390.853 457.41C390.486 458.877 392.81 459.284 393.177 457.818C393.544 456.392 393.055 454.355 394.033 453.174C394.971 451.993 393.136 450.485 392.198 451.667Z" fill="white"/>
<path d="M378.867 464.539L379.071 470.324C379.111 471.831 381.476 471.627 381.435 470.12L381.231 464.335C381.15 462.828 378.785 463.032 378.867 464.539Z" fill="white"/>
<path d="M355.588 460.914C355.588 461.891 355.343 462.91 355.058 463.847C354.895 464.458 355.425 465.109 356.036 465.191C356.729 465.313 357.218 464.865 357.382 464.213C357.708 463.073 357.952 461.891 357.912 460.669C357.912 459.203 355.547 459.406 355.588 460.914Z" fill="white"/>
<path d="M336.793 426.329C335.774 426.37 335.244 426.899 335.122 427.755C334.428 428.855 334.388 430.362 333.572 431.34C332.594 432.521 334.428 433.987 335.407 432.847C336.018 432.114 336.263 431.177 336.589 430.321C336.752 429.873 336.915 429.425 337.119 429.018C337.201 428.895 337.282 428.773 337.364 428.61C338.465 428.203 338.179 426.248 336.793 426.329Z" fill="white"/>
<path d="M316.409 401.114C315.838 401.806 315.553 402.621 315.39 403.517C315.308 404.047 315.39 405.147 314.86 405.472C313.596 406.287 314.941 408.202 316.205 407.387C317.958 406.246 317.02 404.006 318.203 402.621C319.181 401.48 317.387 399.973 316.409 401.114Z" fill="white"/>
<path d="M294.964 382.253C294.352 383.557 293.782 384.86 293.17 386.164C292.558 387.549 294.679 388.526 295.331 387.141C295.942 385.838 296.513 384.534 297.125 383.231C297.736 381.846 295.575 380.868 294.964 382.253Z" fill="white"/>
<path d="M290.684 426.696C290.684 428.488 289.746 430.403 288.604 431.706C287.585 432.847 289.42 434.313 290.439 433.213C292.029 431.421 293.089 428.895 293.048 426.492C293.007 424.944 290.684 425.189 290.684 426.696Z" fill="white"/>
<path d="M301.079 439.609C300.753 440.016 300.549 440.464 300.386 440.953C300.264 441.401 300.101 441.931 299.897 442.216C298.919 443.357 300.753 444.864 301.732 443.723C302.058 443.316 302.262 442.868 302.425 442.379C302.547 441.931 302.71 441.401 302.914 441.116C303.892 439.935 302.099 438.428 301.079 439.609Z" fill="white"/>
<path d="M303.811 458.551C303.363 457.085 301.121 457.899 301.61 459.366C301.854 460.18 301.406 460.995 301.08 461.728C300.672 462.747 300.468 463.765 300.468 464.865C300.468 466.372 302.833 466.169 302.833 464.661C302.792 462.462 304.545 460.791 303.811 458.551Z" fill="white"/>
<path d="M308.785 445.638C308.54 445.434 308.255 445.353 307.929 445.393C307.603 445.434 307.358 445.597 307.113 445.801C306.909 446.004 306.706 446.249 306.502 446.453C306.053 446.941 306.176 447.715 306.665 448.123C306.909 448.326 307.195 448.408 307.521 448.367C307.847 448.326 308.092 448.163 308.336 447.96C308.54 447.756 308.744 447.512 308.948 447.308C309.356 446.819 309.233 446.004 308.785 445.638Z" fill="white"/>
<path d="M331.412 477.656C329.373 480.63 327.417 484.866 328.354 488.532C328.721 489.999 330.963 489.184 330.556 487.718C330.23 486.414 330.637 484.866 331.045 483.603C331.534 482.015 332.309 480.467 333.206 479.122C334.103 477.9 332.268 476.393 331.412 477.656Z" fill="white"/>
<path d="M342.746 496.72L342.949 501.853C342.99 503.36 345.355 503.157 345.314 501.649L345.11 496.517C345.029 494.969 342.705 495.213 342.746 496.72Z" fill="white"/>
<path d="M353.916 491.058C353.875 490.569 353.712 490.203 353.508 489.795C353.508 489.755 353.468 489.754 353.468 489.714C353.712 489.388 353.835 488.981 353.835 488.492C353.835 487.84 353.182 487.351 352.571 487.433C352.082 487.473 351.755 487.799 351.592 488.207C351.144 488.41 350.818 488.858 350.899 489.388C350.94 489.877 351.103 490.243 351.307 490.651C351.429 490.854 351.592 491.14 351.592 491.302C351.715 492.769 354.079 492.565 353.916 491.058Z" fill="white"/>
<path d="M413.683 513.951C412.827 512.689 410.911 514.033 411.767 515.296C412.501 516.396 412.623 517.903 412.664 519.166C412.705 520.469 412.623 521.936 411.971 523.117C411.237 524.42 413.357 525.398 414.132 524.095C414.988 522.587 415.069 520.673 415.029 518.962C414.988 517.292 414.662 515.377 413.683 513.951Z" fill="white"/>
<path d="M394.726 498.716C394.073 498.757 393.625 499.368 393.666 499.979C393.666 500.02 393.666 500.101 393.666 500.142C393.258 500.346 393.013 500.794 393.054 501.283C393.095 501.934 393.707 502.383 394.318 502.342C394.97 502.301 395.541 501.934 395.827 501.323C396.03 500.835 396.03 500.305 395.99 499.775C395.99 499.124 395.337 498.635 394.726 498.716Z" fill="white"/>
<path d="M409.24 493.869C408.506 491.913 407.895 489.877 407.772 487.799C407.691 486.292 405.326 486.496 405.408 488.003C405.53 490.284 406.223 492.525 406.998 494.684C407.528 496.069 409.77 495.295 409.24 493.869Z" fill="white"/>
<path d="M427.056 471.994C426.363 469.55 426.2 466.902 424.732 464.743C423.876 463.48 421.96 464.865 422.816 466.087C424.121 468.042 424.243 470.568 424.854 472.808C425.262 474.275 427.464 473.46 427.056 471.994Z" fill="white"/>
<path d="M434.15 446.819C433.701 446.371 432.886 446.534 432.478 446.982C432.03 447.512 432.193 448.204 432.641 448.652C432.56 448.571 432.804 448.856 432.763 448.856C432.845 448.978 432.845 448.978 432.804 448.897C432.845 448.937 432.845 449.019 432.845 449.06C432.804 449.019 432.886 449.304 432.886 449.345C432.886 449.467 432.886 449.63 432.927 449.752C432.967 450.404 433.579 450.893 434.19 450.811C434.843 450.771 435.291 450.159 435.25 449.548C435.25 448.449 434.924 447.593 434.15 446.819Z" fill="white"/>
<path d="M435.577 406.165C434.761 403.884 434.843 401.155 433.049 399.321C431.989 398.222 430.521 400.055 431.54 401.155C432.152 401.766 432.315 402.906 432.519 403.721C432.764 404.821 432.967 405.921 433.334 406.98C433.864 408.405 436.107 407.591 435.577 406.165Z" fill="white"/>
<path d="M417.149 403.11C417.353 403.313 417.19 402.988 417.19 402.947C417.149 402.662 417.108 402.377 416.986 402.132C416.823 401.725 416.538 401.44 416.211 401.277V400.788C416.171 399.281 413.806 399.484 413.847 400.992L413.887 402.254C413.928 402.825 414.377 403.191 414.866 403.313C414.866 403.354 414.866 403.354 414.866 403.436C414.988 404.047 415.192 404.495 415.641 404.984C416.089 405.432 416.945 405.269 417.312 404.821C417.761 404.25 417.557 403.599 417.149 403.11Z" fill="white"/>
<path d="M388.04 399.036C387.836 399.892 387.795 400.747 387.795 401.603C387.795 402.336 387.959 403.151 387.673 403.884C387.143 405.31 389.263 406.287 389.834 404.862C390.486 403.11 389.915 401.236 390.364 399.403C390.731 397.977 388.407 397.57 388.04 399.036Z" fill="white"/>
<path d="M346.048 393.537C345.64 395.085 345.64 396.918 344.58 398.181C343.602 399.321 345.396 400.829 346.415 399.688C347.801 398.059 347.842 395.9 348.412 393.944C348.779 392.437 346.456 392.07 346.048 393.537Z" fill="white"/>
<path d="M312.536 370.684C312.006 371.825 311.109 372.803 310.253 373.739C309.233 374.839 311.027 376.347 312.087 375.247C313.106 374.147 314.044 373.047 314.696 371.703C315.349 370.318 313.188 369.34 312.536 370.684Z" fill="white"/>
<path d="M271.236 365.185C269.402 365.877 267.608 366.529 265.896 367.425C264.55 368.118 265.936 370.032 267.241 369.34C268.749 368.525 270.421 367.955 272.011 367.385C273.479 366.896 272.663 364.655 271.236 365.185Z" fill="white"/>
<path d="M295.698 357.16C294.394 357.201 293.293 357.364 292.355 358.341C291.907 358.79 292.07 359.604 292.518 360.012C293.048 360.46 293.741 360.297 294.19 359.849C294.108 359.93 294.271 359.808 294.353 359.726C294.312 359.767 294.76 359.604 294.557 359.645C295.005 359.564 295.454 359.564 295.902 359.564C296.554 359.523 297.044 358.912 296.962 358.301C296.921 357.608 296.31 357.16 295.698 357.16Z" fill="white"/>
<path d="M271.032 351.009C270.584 351.009 270.217 351.09 269.85 351.335C269.524 351.539 269.239 351.864 268.994 352.15C268.546 352.638 268.668 353.412 269.157 353.82C269.687 354.227 270.38 354.146 270.829 353.657C270.91 353.575 270.992 353.494 271.073 353.412C271.155 353.412 271.196 353.412 271.277 353.412C271.929 353.372 272.419 352.761 272.337 352.15C272.256 351.416 271.685 351.009 271.032 351.009Z" fill="white"/>
<path d="M268.22 401.603C266.793 403.191 266.14 405.31 265.04 407.102C264.265 408.406 266.426 409.383 267.2 408.08C268.179 406.45 268.79 404.536 270.054 403.11C271.033 401.969 269.198 400.462 268.22 401.603Z" fill="white"/>
<path d="M249.384 431.869C248.161 433.254 247.591 435.087 246.327 436.472C245.307 437.613 247.142 439.12 248.161 437.98C249.384 436.594 249.996 434.761 251.219 433.376C252.197 432.195 250.404 430.729 249.384 431.869Z" fill="white"/>
<path d="M251.097 454.07C249.547 455.007 248.977 456.922 247.794 458.266C246.775 459.406 248.61 460.873 249.629 459.773C250.24 459.121 250.689 458.347 251.137 457.573C251.504 456.962 251.871 456.392 252.483 456.025C253.747 455.211 252.36 453.296 251.097 454.07Z" fill="white"/>
<path d="M267.241 459.529C267.241 458.877 266.548 458.388 265.977 458.47C265.366 458.51 265.04 458.958 264.917 459.488C264.836 459.569 264.754 459.651 264.714 459.732C264.632 459.855 264.55 459.977 264.51 460.099C263.98 460.425 263.694 461.036 263.694 461.728C263.694 462.38 264.347 462.869 264.958 462.788C265.447 462.747 265.773 462.421 265.937 462.014C266.303 461.851 266.548 461.525 266.63 461.117C266.711 461.036 266.793 460.954 266.833 460.873C267.16 460.466 267.241 460.018 267.241 459.529Z" fill="white"/>
<path d="M222.599 438.753C222.191 438.183 221.539 438.142 220.968 438.468C219.46 439.283 217.992 440.301 217.992 442.175C217.992 442.827 218.685 443.316 219.256 443.234C219.949 443.194 220.316 442.583 220.316 441.972C220.316 441.89 220.316 441.849 220.438 441.686C220.357 441.849 220.601 441.523 220.561 441.523C220.601 441.483 220.601 441.442 220.642 441.442C220.642 441.442 220.683 441.401 220.765 441.361C221.254 440.953 221.784 440.668 222.314 440.383C222.885 440.098 222.925 439.242 222.599 438.753Z" fill="white"/>
<path d="M240.252 417.938C239.722 417.53 239.029 417.612 238.581 418.101C238.173 418.549 237.765 418.997 237.358 419.445C236.909 419.934 237.031 420.708 237.521 421.115C238.051 421.522 238.744 421.441 239.192 420.952C239.6 420.504 240.008 420.056 240.415 419.608C240.864 419.16 240.741 418.345 240.252 417.938Z" fill="white"/>
<path d="M210.613 420.219C208.534 421.726 206.536 423.274 204.783 425.148C203.723 426.248 205.558 427.755 206.618 426.655C208.248 424.944 210.083 423.559 211.999 422.174C213.222 421.237 211.877 419.323 210.613 420.219Z" fill="white"/>
<path d="M286.117 469.061C285.302 469.998 284.69 471.261 284.649 472.523C284.649 473.175 285.342 473.664 285.913 473.582C286.606 473.542 286.973 472.931 286.973 472.32C286.973 472.564 287.014 472.116 287.055 472.075C287.055 471.994 287.218 471.709 287.259 471.546C287.422 471.179 287.626 470.853 287.911 470.568C288.93 469.387 287.136 467.92 286.117 469.061Z" fill="white"/>
<path d="M335.366 536.845C333.98 539.248 334.184 542.263 333.654 544.911C333.369 546.418 335.692 546.784 335.978 545.318C336.467 542.874 336.263 540.063 337.527 537.822C338.261 536.519 336.1 535.541 335.366 536.845Z" fill="white"/>
<path d="M349.35 526.254C348.698 524.909 346.455 525.683 347.149 527.068C347.882 528.535 347.842 530.286 347.923 531.875C347.964 533.382 350.329 533.179 350.288 531.671C350.165 529.838 350.165 527.883 349.35 526.254Z" fill="white"/>
<path d="M378.377 510.041C378.296 508.534 375.972 508.737 376.013 510.245C376.094 511.67 376.869 513.992 375.85 515.214C374.871 516.396 376.706 517.862 377.684 516.721C379.233 514.807 378.5 512.281 378.377 510.041Z" fill="white"/>
<path d="M367.9 551.265C368.389 550.532 368.267 549.84 368.226 548.984C368.185 547.477 365.821 547.681 365.861 549.188L365.902 550.002C364.557 552.121 365.413 555.217 365.535 557.539C365.617 559.046 367.941 558.842 367.9 557.335C367.818 555.828 367.574 554.361 367.574 552.895C367.614 552.365 367.614 551.673 367.9 551.265Z" fill="white"/>
<path d="M372.425 556.031C371.773 556.072 371.325 556.683 371.365 557.294L371.406 557.946C371.447 558.598 372.058 559.086 372.67 559.005C373.322 558.964 373.771 558.353 373.73 557.742L373.689 557.09C373.648 556.479 373.037 555.991 372.425 556.031Z" fill="white"/>
<path d="M395.908 561.571C396.031 565.645 395.582 569.718 395.704 573.792C395.745 575.299 398.11 575.096 398.069 573.588C397.947 569.515 398.395 565.441 398.273 561.368C398.232 559.82 395.868 560.064 395.908 561.571Z" fill="white"/>
<path d="M401.983 550.776C401.82 550.613 401.779 550.165 401.738 549.921C401.657 549.432 401.657 548.903 401.657 548.373C401.616 546.866 399.251 547.069 399.292 548.577C399.333 550.043 399.414 551.469 400.474 552.569C400.923 553.017 401.779 552.854 402.146 552.406C402.594 551.876 402.431 551.225 401.983 550.776Z" fill="white"/>
<path d="M415.151 542.874L415.274 546.703C415.314 548.21 417.679 548.006 417.638 546.499L417.516 542.629C417.435 541.163 415.111 541.366 415.151 542.874Z" fill="white"/>
<path d="M434.313 527.924C434.231 526.417 431.867 526.62 431.948 528.127C432.152 531.468 434.028 534.36 434.231 537.66C434.313 539.167 436.678 538.963 436.596 537.456C436.392 534.156 434.517 531.223 434.313 527.924Z" fill="white"/>
<path d="M437.289 567.234C436.922 565.482 436.311 563.69 436.229 561.897C436.148 560.39 433.783 560.594 433.864 562.101C433.946 563.649 434.394 565.156 434.761 566.663C434.965 567.437 435.658 569.556 435.087 570.207C434.15 571.389 435.944 572.896 436.922 571.715C437.941 570.452 437.574 568.659 437.289 567.234Z" fill="white"/>
<path d="M423.102 583.691L423.346 590.086C423.387 591.593 425.752 591.39 425.711 589.882L425.466 583.487C425.385 581.939 423.02 582.184 423.102 583.691Z" fill="white"/>
<path d="M344.865 571.796L345.11 578.843C345.151 580.35 347.515 580.147 347.474 578.64L347.23 571.592C347.148 570.044 344.825 570.289 344.865 571.796Z" fill="white"/>
<path d="M363.008 589.801C361.744 591.96 361.785 594.404 361.866 596.848C361.907 598.356 364.272 598.152 364.231 596.645C364.15 594.567 364.109 592.612 365.169 590.779C365.943 589.475 363.783 588.498 363.008 589.801Z" fill="white"/>
<path d="M394.889 610.617C393.625 608.132 394.074 605.281 393.992 602.592C393.951 601.085 391.587 601.288 391.627 602.796C391.709 605.688 391.26 608.702 392.647 611.391C393.34 612.776 395.582 612.002 394.889 610.617Z" fill="white"/>
<path d="M418.168 607.643L418.372 612.776C418.413 614.283 420.778 614.079 420.737 612.572L420.533 607.44C420.492 605.892 418.128 606.136 418.168 607.643Z" fill="white"/>
<path d="M399.74 594.526C399.577 595.382 399.374 596.237 399.21 597.133C398.884 598.6 401.208 599.007 401.534 597.541C401.697 596.685 401.901 595.83 402.064 594.934C402.35 593.426 400.026 593.019 399.74 594.526Z" fill="white"/>
<path d="M339.403 556.52C339.117 555.95 338.22 555.909 337.772 556.235C337.201 556.642 337.201 557.294 337.486 557.864C337.935 558.72 338.016 559.535 338.016 560.472C338.057 561.979 340.422 561.775 340.381 560.268C340.34 558.883 340.055 557.742 339.403 556.52Z" fill="white"/>
<path d="M329.006 506.863C329.047 508.167 329.128 509.552 328.639 510.774C328.068 512.159 330.188 513.137 330.8 511.752C331.452 510.122 331.452 508.371 331.371 506.66C331.289 505.112 328.924 505.356 329.006 506.863Z" fill="white"/>
<path d="M462.403 436.676C461.873 435.25 459.671 436.065 460.201 437.491C460.935 439.446 461.547 441.483 461.669 443.56C461.751 445.067 464.115 444.864 464.034 443.357C463.871 441.035 463.218 438.794 462.403 436.676Z" fill="white"/>
<path d="M452.822 384.29C451.436 383.638 450.457 385.797 451.844 386.449C452.985 387.019 453.8 387.915 453.882 389.219C453.964 390.726 456.328 390.523 456.247 389.015C456.083 386.897 454.738 385.186 452.822 384.29Z" fill="white"/>
<path d="M440.877 379.361C440.347 378.343 440.02 377.243 439.49 376.184C439.205 375.613 438.308 375.572 437.86 375.898C437.289 376.306 437.289 376.958 437.574 377.528C438.104 378.546 438.43 379.646 438.96 380.705C439.246 381.276 440.143 381.316 440.591 380.99C441.203 380.583 441.203 379.931 440.877 379.361Z" fill="white"/>
<path d="M476.549 383.149C474.837 381.805 472.758 380.42 470.638 379.768C469.211 379.32 468.192 381.479 469.659 381.927C471.249 382.416 472.717 383.353 474.062 384.29C474.878 384.86 475.652 385.431 476.345 386.123C476.59 386.368 476.835 386.693 476.998 387.019C477.079 387.182 477.039 387.101 476.998 387.141C476.264 388.486 478.425 389.463 479.159 388.119C480.259 386.164 477.895 384.209 476.549 383.149Z" fill="white"/>
<path d="M507.616 398.507C506.271 397.285 504.966 396.022 503.621 394.8C502.52 393.781 501.011 395.574 502.112 396.633C503.457 397.855 504.762 399.118 506.107 400.34C507.208 401.358 508.717 399.566 507.616 398.507Z" fill="white"/>
<path d="M492.653 411.909C491.919 411.216 491.349 410.564 490.859 409.627C490.533 409.057 489.718 409.016 489.229 409.342C488.658 409.75 488.617 410.442 488.943 410.972C489.514 412.031 490.289 412.886 491.186 413.701C491.675 414.149 492.449 414.027 492.857 413.538C493.265 413.049 493.143 412.357 492.653 411.909Z" fill="white"/>
<path d="M469.619 414.679C469.7 414.76 469.578 414.597 469.537 414.516C469.456 414.312 469.415 414.149 469.374 414.027C469.293 413.66 469.293 413.294 469.293 412.968C469.252 412.316 468.64 411.827 468.029 411.909C467.377 411.949 466.928 412.56 466.969 413.172C467.01 414.434 467.213 415.616 468.11 416.512C468.559 416.96 469.415 416.797 469.782 416.349C470.23 415.819 470.067 415.127 469.619 414.679Z" fill="white"/>
<path d="M507.86 516.599C507.656 515.214 507.33 513.829 507.004 512.444C506.433 509.919 505.577 507.312 505.455 504.745C505.373 503.238 503.049 503.442 503.09 504.949C503.212 507.352 503.987 509.756 504.517 512.078C504.802 513.381 505.088 514.644 505.332 515.948C505.414 516.436 505.495 516.884 505.577 517.373C505.577 517.536 505.618 517.658 505.618 517.821C505.658 517.74 505.699 517.658 505.781 517.536C505.699 517.658 505.658 517.74 505.618 517.862V517.821V517.862C505.618 517.903 505.618 517.944 505.577 517.944C505.291 519.043 506.8 520.103 507.615 519.003C508.145 518.31 507.982 517.414 507.86 516.599Z" fill="white"/>
<path d="M505.618 517.862C505.618 517.821 505.618 517.821 505.618 517.821C505.577 517.944 505.577 517.985 505.618 517.944C505.618 517.903 505.618 517.903 505.618 517.862Z" fill="white"/>
<path d="M526.165 473.175C526.084 471.668 523.76 471.872 523.801 473.379C523.923 476.23 524.698 479.204 524.127 482.055C523.842 483.563 526.166 483.929 526.451 482.463C527.062 479.367 526.288 476.23 526.165 473.175Z" fill="white"/>
<path d="M533.463 436.187C532.811 435.495 532.444 434.802 531.955 433.947C531.302 432.765 530.772 431.543 530.283 430.321C530.079 429.832 529.549 429.344 529.223 428.936C528.815 428.366 528.408 427.836 527.918 427.348C526.858 426.288 525.35 428.081 526.41 429.181C527.021 429.792 527.47 430.606 528.041 431.258C528.611 431.91 528.897 433.173 529.345 434.028C529.753 434.843 530.12 435.698 530.609 436.472C530.854 436.839 531.098 437.206 531.425 437.531C531.465 437.572 531.465 437.572 531.506 437.613C531.425 438.591 532.811 439.446 533.585 438.468C534.197 437.654 534.115 436.88 533.463 436.187Z" fill="white"/>
<path d="M514.506 429.099C514.057 428.651 513.242 428.814 512.834 429.262C512.386 429.792 512.549 430.484 512.997 430.932C512.916 430.851 513.038 431.014 513.119 431.095C513.079 431.054 513.242 431.503 513.201 431.299C513.283 431.747 513.283 432.195 513.283 432.643C513.323 433.295 513.935 433.784 514.546 433.702C515.199 433.662 515.647 433.05 515.606 432.439C515.606 431.136 515.484 430.036 514.506 429.099Z" fill="white"/>
<path d="M497.545 447.593C496.689 444.823 494.284 442.664 494.08 439.65C493.999 438.142 491.634 438.346 491.715 439.853C491.919 443.153 494.365 445.353 495.303 448.367C495.752 449.834 497.994 449.019 497.545 447.593Z" fill="white"/>
<path d="M483.032 473.175C482.339 471.831 480.096 472.646 480.83 473.99C482.216 476.638 482.257 479.693 482.379 482.626C482.42 484.133 484.785 483.929 484.744 482.422C484.622 479.285 484.499 475.986 483.032 473.175Z" fill="white"/>
<path d="M457.347 491.465C456.94 489.999 454.738 490.814 455.146 492.28C455.92 495.091 455.961 498.065 456.043 500.957C456.083 502.464 458.448 502.26 458.407 500.753C458.285 497.616 458.203 494.439 457.347 491.465Z" fill="white"/>
<path d="M455.064 474.601C455.105 475.741 455.105 476.841 454.657 477.9C454.086 479.285 456.206 480.263 456.817 478.878C457.429 477.452 457.47 475.945 457.429 474.397C457.388 472.89 455.024 473.094 455.064 474.601Z" fill="white"/>
<path d="M475.775 536.682C475.693 535.175 473.37 535.378 473.41 536.886C473.533 539.289 474.43 542.426 473.166 544.666C472.432 545.97 474.552 546.947 475.326 545.644C476.835 542.996 475.897 539.533 475.775 536.682Z" fill="white"/>
<path d="M449.723 521.039L449.846 524.869C449.886 526.376 452.251 526.172 452.21 524.665L452.088 520.836C452.006 519.329 449.642 519.532 449.723 521.039Z" fill="white"/>
<path d="M457.429 573.425C457.47 574.607 457.51 575.788 457.47 576.929C457.47 577.54 457.388 578.11 457.306 578.721C457.266 578.925 457.225 579.128 457.143 579.291V579.332C456.043 579.821 456.328 581.776 457.714 581.572C459.304 581.328 459.63 579.576 459.753 578.232C459.916 576.562 459.875 574.892 459.793 573.222C459.712 571.714 457.388 571.918 457.429 573.425Z" fill="white"/>
<path d="M463.544 547.518C463.544 547.803 463.341 548.984 463.259 549.554C463.096 550.41 462.933 551.306 462.566 552.121C461.954 553.506 464.115 554.483 464.727 553.098C465.46 551.387 465.909 549.228 465.909 547.314C465.909 545.807 463.544 546.01 463.544 547.518Z" fill="white"/>
<path d="M537.051 515.336C536.195 516.844 535.909 518.718 535.706 520.388C535.502 521.895 535.339 523.443 535.379 524.95C535.42 526.457 537.785 526.254 537.744 524.746C537.703 523.443 537.866 522.099 538.07 520.795C538.274 519.288 538.478 517.618 539.252 516.314C539.945 515.011 537.826 514.033 537.051 515.336Z" fill="white"/>
<path d="M546.183 492.973C546.102 491.465 543.737 491.669 543.818 493.176C543.9 494.317 544.185 495.417 544.43 496.517C544.634 497.331 545.123 498.798 544.838 499.613C544.308 501.038 546.428 502.016 546.998 500.59C547.895 498.187 546.305 495.417 546.183 492.973Z" fill="white"/>
<path d="M535.501 499.816C535.461 498.309 533.096 498.513 533.137 500.02C533.178 500.712 533.341 501.812 532.892 502.423C531.914 503.605 533.748 505.071 534.727 503.931C535.664 502.749 535.542 501.201 535.501 499.816Z" fill="white"/>
<path d="M439.939 604.588C439.654 606.462 439.572 608.417 439.45 610.332C439.328 612.165 439.246 614.202 438.512 615.913C437.901 617.298 440.061 618.275 440.673 616.89C442.263 613.224 441.651 608.865 442.263 604.995C442.507 603.488 440.184 603.081 439.939 604.588Z" fill="white"/>
<path d="M452.292 608.01C451.803 609.802 451.762 611.595 451.844 613.468C451.884 614.976 454.249 614.772 454.208 613.265C454.167 611.595 454.208 610.047 454.657 608.417C455.024 606.951 452.7 606.543 452.292 608.01Z" fill="white"/>
<path d="M531.425 583.161C530.895 581.735 528.693 582.55 529.223 583.976C529.957 585.931 530.569 587.927 530.936 589.923C531.303 591.797 531.629 593.997 531.017 595.83C530.528 597.256 532.689 598.233 533.178 596.808C534.605 592.449 532.974 587.275 531.425 583.161Z" fill="white"/>
<path d="M534.687 564.219C534.034 564.26 533.586 564.871 533.627 565.482L533.708 567.396C533.749 568.048 534.36 568.537 534.972 568.456C535.624 568.415 536.073 567.804 536.032 567.193L535.95 565.278C535.95 564.667 535.339 564.178 534.687 564.219Z" fill="white"/>
<path d="M510.918 548.251C510.836 546.744 508.512 546.947 508.553 548.455C508.635 550.573 509.369 552.976 508.268 554.931C507.534 556.235 509.654 557.213 510.429 555.909C511.774 553.546 511.04 550.776 510.918 548.251Z" fill="white"/>
<path d="M494.04 537.415L494.162 540.633C494.203 542.141 496.567 541.937 496.527 540.43L496.404 537.211C496.323 535.663 493.958 535.908 494.04 537.415Z" fill="white"/>
<path d="M487.761 594.16C487.802 596.115 487.312 597.989 487.312 599.944C487.353 601.451 489.677 601.248 489.677 599.74C489.636 597.785 490.125 595.911 490.125 593.956C490.085 592.449 487.72 592.653 487.761 594.16Z" fill="white"/>
<path d="M494.325 580.432C494.366 581.41 494.284 582.183 493.917 583.08C493.306 584.465 495.467 585.442 496.078 584.057C496.649 582.795 496.771 581.613 496.69 580.228C496.608 578.721 494.284 578.925 494.325 580.432Z" fill="white"/>
<path d="M518.338 621.004C517.156 625.282 517.971 629.803 518.134 634.162C518.216 635.669 520.539 635.465 520.499 633.958C520.336 629.803 519.52 625.485 520.662 621.412C521.07 619.945 518.746 619.538 518.338 621.004Z" fill="white"/>
<path d="M530.365 616.361L530.528 620.841C530.569 622.349 532.933 622.145 532.893 620.638L532.73 616.157C532.648 614.65 530.283 614.853 530.365 616.361Z" fill="white"/>
<path d="M544.675 613.835C544.348 613.102 543.737 612.776 542.921 612.776C542.269 612.776 541.78 613.468 541.861 614.039C541.902 614.487 542.188 614.813 542.555 614.976C542.555 615.098 542.555 615.179 542.555 615.301C542.595 615.953 543.207 616.442 543.818 616.361C544.471 616.32 544.919 615.709 544.878 615.098C544.878 614.65 544.838 614.202 544.675 613.835Z" fill="white"/>
<path d="M538.6 648.175C538.6 649.682 538.111 651.149 538.111 652.697C538.111 654.204 540.475 654 540.475 652.493C540.475 650.986 540.965 649.519 540.965 647.971C540.924 646.464 538.6 646.668 538.6 648.175Z" fill="white"/>
<path d="M523.149 653.756C523.108 652.249 520.743 652.452 520.784 653.959C520.825 655.263 520.866 656.567 520.784 657.829C520.743 658.481 520.662 659.092 520.499 659.744C520.417 660.029 520.172 660.436 520.213 660.436C518.705 660.599 518.909 662.962 520.417 662.799C523.964 662.432 523.23 656.159 523.149 653.756Z" fill="white"/>
<path d="M460.242 632.41C460.324 634.895 460.405 637.38 459.916 639.824C459.63 641.332 461.954 641.698 462.24 640.232C462.77 637.584 462.729 634.895 462.607 632.207C462.525 630.699 460.201 630.903 460.242 632.41Z" fill="white"/>
<path d="M238.01 619.701C236.053 617.868 234.177 616.035 232.873 613.713C232.139 612.409 230.223 613.754 230.957 615.057C232.384 617.583 234.463 619.579 236.542 621.534C237.643 622.552 239.151 620.76 238.01 619.701Z" fill="white"/>
<path d="M244.941 650.945C243.188 649.316 241.312 647.523 240.579 645.201C240.13 643.735 237.888 644.55 238.377 646.016C239.233 648.745 241.394 650.864 243.473 652.778C244.574 653.797 246.082 651.963 244.941 650.945Z" fill="white"/>
<path d="M248.895 641.983C248.854 641.494 248.651 641.087 248.447 640.68C248.447 640.639 248.324 640.476 248.284 640.395C248.243 640.354 248.243 640.272 248.202 640.232C248.202 640.191 248.202 640.191 248.161 640.191C248.161 640.191 248.161 640.15 248.161 640.109C248.121 639.458 247.509 638.969 246.897 639.05C246.245 639.091 245.756 639.702 245.838 640.313C245.878 640.802 246.082 641.209 246.286 641.617C246.286 641.657 246.408 641.82 246.449 641.902C246.49 641.943 246.49 642.024 246.531 642.065C246.531 642.105 246.531 642.106 246.571 642.146C246.571 642.146 246.571 642.187 246.571 642.228C246.612 642.879 247.224 643.368 247.835 643.287C248.447 643.205 248.936 642.635 248.895 641.983Z" fill="white"/>
<path d="M273.397 585.646C270.951 583.487 267.486 582.509 264.347 581.858C262.879 581.532 262.471 583.854 263.939 584.18C266.67 584.75 269.728 585.565 271.889 587.479C273.071 588.498 274.539 586.664 273.397 585.646Z" fill="white"/>
<path d="M246.897 580.839C245.511 579.576 243.717 579.006 242.046 578.273C240.66 577.662 239.681 579.78 241.067 580.432C242.576 581.084 244.166 581.572 245.389 582.672C246.531 583.691 248.039 581.858 246.897 580.839Z" fill="white"/>
<path d="M253.828 566.297C251.463 565.278 248.65 565.115 246.123 565.156C244.614 565.197 244.818 567.559 246.327 567.519C248.447 567.478 250.893 567.6 252.85 568.456C254.236 569.026 255.214 566.908 253.828 566.297Z" fill="white"/>
<path d="M325.418 608.336C325.174 606.625 323.054 605.973 321.708 605.443C320.811 605.077 319.914 604.751 319.058 604.344C318.732 604.181 318.488 603.896 318.161 603.773C317.631 603.529 316.857 603.692 316.286 603.733C314.778 603.773 314.981 606.136 316.49 606.095L317.305 606.055C318.202 606.666 319.262 607.073 320.281 607.44C320.974 607.725 321.627 607.969 322.279 608.295C322.483 608.376 322.687 608.499 322.891 608.621C323.217 608.825 323.135 608.987 323.094 608.58C323.298 610.047 325.622 609.843 325.418 608.336Z" fill="white"/>
<path d="M307.725 589.271C305.564 588.66 303.403 588.212 301.243 587.601C299.775 587.194 299.408 589.516 300.835 589.923C302.996 590.534 305.156 590.982 307.317 591.593C308.785 592.001 309.152 589.679 307.725 589.271Z" fill="white"/>
<path d="M301.609 629.844C300.549 628.378 299.163 627.115 297.777 625.933C296.35 624.752 294.719 623.652 292.926 623.204C291.458 622.838 291.05 625.159 292.518 625.526C294.026 625.893 295.372 626.993 296.513 627.929C297.655 628.907 298.796 629.966 299.693 631.188C300.59 632.41 302.506 631.066 301.609 629.844Z" fill="white"/>
<path d="M274.947 634.243C273.723 633.673 272.745 632.696 272.093 631.555C271.767 630.985 270.951 630.944 270.462 631.27C269.891 631.677 269.85 632.37 270.177 632.899C271.033 634.406 272.419 635.628 273.968 636.362C275.354 637.054 276.333 634.895 274.947 634.243Z" fill="white"/>
<path d="M277.841 695.143C277.637 694.532 276.944 694.166 276.455 693.84C274.661 692.618 273.071 691.314 271.44 689.807C270.34 688.788 268.831 690.581 269.932 691.64C271.073 692.699 272.174 693.799 273.479 694.695C273.968 695.021 274.457 695.347 274.947 695.673C275.15 695.836 275.354 695.958 275.599 696.121C275.721 696.569 276.129 696.936 276.781 696.813C277.556 696.65 278.167 695.958 277.841 695.143Z" fill="white"/>
<path d="M255.826 684.593C255.296 684.104 254.277 683.697 254.236 682.923C254.195 682.515 253.951 682.108 253.543 681.945C253.094 681.741 252.687 681.538 252.238 681.334C250.852 680.723 249.874 682.841 251.26 683.493C251.504 683.615 251.79 683.737 252.034 683.86C252.401 685 253.421 685.611 254.318 686.426C255.459 687.404 256.967 685.571 255.826 684.593Z" fill="white"/>
<path d="M291.988 671.068C291.05 670.295 290.072 669.561 289.093 668.828C287.707 667.81 286.158 666.547 284.486 666.017C283.059 665.569 282.081 667.687 283.508 668.176C285.016 668.665 286.362 669.765 287.585 670.661C288.563 671.394 289.542 672.128 290.479 672.902C291.662 673.839 293.17 672.005 291.988 671.068Z" fill="white"/>
<path d="M319.181 701.335C316.042 699.869 313.269 697.75 310.008 696.528C308.581 695.999 307.602 698.158 309.029 698.687C312.291 699.909 315.063 702.028 318.202 703.494C319.589 704.146 320.567 701.987 319.181 701.335Z" fill="white"/>
<path d="M354.039 712.823C353.101 712.741 352.122 712.619 351.185 712.497C350.043 712.334 348.372 712.212 347.434 711.397C346.292 710.419 344.784 712.252 345.925 713.23C347.108 714.208 348.861 714.493 350.288 714.737C351.389 714.941 352.489 715.063 353.59 715.145C355.139 715.267 355.547 712.945 354.039 712.823Z" fill="white"/>
<path d="M351.144 701.213C349.962 699.38 346.863 698.932 344.866 698.972C343.357 699.013 343.561 701.335 345.069 701.335C346.211 701.294 348.535 701.498 349.228 702.557C350.043 703.861 351.96 702.516 351.144 701.213Z" fill="white"/>
<path d="M323.299 673.594C321.627 672.82 320.037 671.761 318.162 671.72C316.654 671.72 316.857 674.042 318.366 674.083C319.711 674.083 321.138 675.183 322.361 675.753C323.707 676.364 324.685 674.205 323.299 673.594Z" fill="white"/>
<path d="M359.013 634.773C358.034 633.144 356.199 632.41 354.446 631.922C352.489 631.351 350.451 631.148 348.453 630.822C346.945 630.577 346.537 632.899 348.046 633.144C349.758 633.429 351.511 633.632 353.223 634.04C354.609 634.366 356.281 634.854 357.056 636.158C357.83 637.462 359.746 636.077 359.013 634.773Z" fill="white"/>
<path d="M347.964 643.002C346.782 643.002 345.681 642.431 344.662 641.943C343.276 641.332 342.297 643.45 343.683 644.102C345.11 644.753 346.578 645.364 348.168 645.364C349.676 645.364 349.473 643.002 347.964 643.002Z" fill="white"/>
<path d="M392.647 629.477C390.649 627.767 387.225 627.481 384.656 627.563C383.148 627.604 383.352 629.966 384.86 629.926C386.776 629.885 389.63 630.007 391.138 631.31C392.321 632.247 393.829 630.455 392.647 629.477Z" fill="white"/>
<path d="M408.792 643.246C407.691 641.494 405.082 640.965 403.165 641.006C401.657 641.046 401.861 643.368 403.369 643.368C404.47 643.368 406.223 643.613 406.875 644.631C407.691 645.894 409.607 644.509 408.792 643.246Z" fill="white"/>
<path d="M423.754 635.384C422.938 634.61 422.123 633.918 420.94 633.918C420.288 633.918 419.799 634.61 419.88 635.18C419.921 635.832 420.451 636.199 421.063 636.24H421.104C421.144 636.28 421.226 636.28 421.267 636.321C421.267 636.321 421.307 636.362 421.389 636.402C421.715 636.647 422 636.891 422.286 637.176C422.775 637.625 423.55 637.502 423.957 637.013C424.324 636.525 424.202 635.832 423.754 635.384Z" fill="white"/>
<path d="M369.082 677.057C367.085 675.835 365.046 674.612 362.641 674.612C361.133 674.612 361.336 676.975 362.845 676.975C364.761 676.975 366.555 678.279 368.145 679.216C369.409 679.99 370.346 677.831 369.082 677.057Z" fill="white"/>
<path d="M397.295 693.392C396.194 690.785 392.932 688.992 390.16 688.992C388.652 688.992 388.855 691.355 390.364 691.355C392.035 691.355 394.4 692.658 395.093 694.206C395.664 695.591 397.865 694.817 397.295 693.392Z" fill="white"/>
<path d="M404.552 716.244C404.062 715.104 403.206 714.411 402.146 713.8C401.412 713.352 400.189 713.026 399.781 712.293C398.966 710.989 397.05 712.375 397.865 713.637C398.355 714.452 399.292 714.9 400.108 715.348C400.882 715.756 401.983 716.204 402.35 717.059C402.921 718.444 405.122 717.67 404.552 716.244Z" fill="white"/>
<path d="M400.515 732.172C398.966 730.135 396.846 728.709 394.971 726.999C393.87 725.98 392.361 727.813 393.462 728.832C395.174 730.38 397.172 731.683 398.558 733.557C399.496 734.738 401.412 733.394 400.515 732.172Z" fill="white"/>
<path d="M412.624 669.561C412.583 669.561 412.583 669.561 412.542 669.561C412.379 669.561 412.216 669.521 412.053 669.48C411.686 669.439 411.36 669.358 410.993 669.276C410.177 669.113 409.403 668.869 408.628 668.543C407.242 667.932 406.264 670.091 407.65 670.702C409.199 671.394 411.074 671.924 412.787 671.924C414.295 671.883 414.091 669.602 412.624 669.561Z" fill="white"/>
<path d="M380.579 655.956C379.601 655.996 378.826 655.915 377.929 655.548C376.543 654.937 375.564 657.096 376.951 657.707C378.214 658.277 379.397 658.4 380.783 658.318C382.291 658.237 382.087 655.874 380.579 655.956Z" fill="white"/>
<path d="M438.063 670.417C437.289 669.072 436.107 667.973 434.761 667.199C434.72 667.117 434.68 667.036 434.598 666.954C434.517 666.832 434.394 666.71 434.272 666.588C434.231 666.547 434.231 666.547 434.19 666.506C433.823 665.162 431.622 665.406 431.867 666.832C431.948 667.362 432.111 667.769 432.519 668.136L432.56 668.176C432.56 668.217 432.6 668.298 432.641 668.38C432.804 668.787 433.13 668.991 433.497 669.154C434.598 669.684 435.495 670.702 436.107 671.72C436.922 673.105 438.838 671.72 438.063 670.417Z" fill="white"/>
<path d="M449.112 730.787C448.174 730.013 446.748 729.769 445.606 729.483C444.138 729.117 442.63 728.832 441.121 728.872C439.613 728.913 439.817 731.235 441.325 731.235C442.548 731.194 443.771 731.479 444.913 731.765C445.728 731.928 447.114 732.253 447.604 732.62C448.786 733.557 450.294 731.765 449.112 730.787Z" fill="white"/>
<path d="M429.095 733.801C427.79 733.801 426.526 733.313 425.222 733.313C423.713 733.313 423.917 735.675 425.425 735.675C426.73 735.675 427.994 736.164 429.298 736.164C430.807 736.164 430.603 733.801 429.095 733.801Z" fill="white"/>
<path d="M433.049 707.853C431.908 705.979 429.462 705.572 427.423 705.612C425.915 705.653 426.119 707.975 427.627 707.975C428.85 707.934 430.44 708.097 431.133 709.238C431.908 710.501 433.824 709.156 433.049 707.853Z" fill="white"/>
<path d="M462.973 694.043C461.139 694.166 459.671 695.388 457.877 695.51C456.369 695.632 456.573 697.954 458.081 697.872C459.916 697.75 461.383 696.528 463.177 696.406C464.686 696.243 464.482 693.921 462.973 694.043Z" fill="white"/>
<path d="M467.132 719.585L463.912 719.707C462.403 719.747 462.607 722.11 464.115 722.069L467.336 721.947C468.845 721.866 468.641 719.503 467.132 719.585Z" fill="white"/>
<path d="M499.38 716.57L499.34 716.611C499.217 716.733 499.013 716.896 498.85 717.018C498.28 717.507 497.627 717.915 497.016 718.322C495.997 718.974 494.733 719.788 493.51 719.87C492.001 719.992 492.205 722.314 493.714 722.232C495.467 722.11 497.138 721.01 498.606 720.114C499.584 719.503 501.541 718.444 501.704 717.141C501.867 715.715 499.747 715.267 499.38 716.57Z" fill="white"/>
<path d="M513.119 699.013C511.815 701.091 510.143 702.883 508.839 704.961C508.023 706.223 509.858 707.731 510.673 706.468C511.978 704.39 513.649 702.598 514.954 700.52C515.729 699.258 513.935 697.71 513.119 699.013Z" fill="white"/>
<path d="M495.181 690.581C494.651 690.174 493.958 690.296 493.51 690.744C492.98 691.314 492.653 691.64 491.797 691.681C490.289 691.762 490.493 694.125 492.001 694.043C493.428 693.962 494.406 693.229 495.344 692.251C495.793 691.762 495.67 690.947 495.181 690.581Z" fill="white"/>
<path d="M475.286 666.343C474.145 667.484 472.596 667.932 471.046 668.013C469.538 668.095 469.742 670.457 471.25 670.376C473.492 670.254 475.531 669.439 477.121 667.85C478.181 666.751 476.346 665.284 475.286 666.343Z" fill="white"/>
<path d="M493.224 647.727C491.879 649.193 490.86 650.904 489.555 652.371C488.536 653.511 490.37 654.978 491.39 653.878C492.735 652.412 493.754 650.701 495.059 649.234C496.078 648.094 494.244 646.586 493.224 647.727Z" fill="white"/>
<path d="M483.766 625.77C483.766 626.993 482.869 628.663 481.85 629.274C480.545 630.048 481.931 632.003 483.195 631.188C484.948 630.129 486.09 627.563 486.09 625.526C486.13 624.059 483.766 624.263 483.766 625.77Z" fill="white"/>
<path d="M513.772 601.248C513.527 602.51 513.527 603.855 513.527 605.118C513.527 606.095 513.69 607.602 513.038 608.417C512.059 609.599 513.894 611.065 514.872 609.924C516.666 607.765 515.647 604.181 516.136 601.614C516.381 600.148 514.057 599.781 513.772 601.248Z" fill="white"/>
</g>
<defs>
<filter id="filter0_f" x="130" y="0" width="866" height="866" filterUnits="userSpaceOnUse" color-interpolation-filters="sRGB">
<feFlood flood-opacity="0" result="BackgroundImageFix"/>
<feBlend mode="normal" in="SourceGraphic" in2="BackgroundImageFix" result="shape"/>
<feGaussianBlur stdDeviation="100" result="effect1_foregroundBlur"/>
</filter>
<clipPath id="clip0">
<rect width="581" height="649" fill="white" transform="translate(0 98)"/>
</clipPath>
</defs>
</svg>
