<svg width="959" height="959" viewBox="0 0 959 959" fill="none" xmlns="http://www.w3.org/2000/svg">
<g opacity="0.5" filter="url(#filter0_f)">
<circle cx="479.5" cy="479.5" r="279.5" fill="#FFDDC4"/>
</g>
<g clip-path="url(#clip0)">
<path d="M578.069 668.109C578.142 667.72 578.191 667.355 578.191 666.941C578.264 664.801 575.247 664.995 575.198 667.111C575.149 668.522 574.541 669.763 574.687 671.222C574.93 673.412 576.561 674.749 578.215 675.698C579.262 676.306 580.381 675.333 580.381 674.141V669.349C580.381 667.89 578.97 667.525 578.069 668.109Z" fill="#E7D6C4"/>
<path d="M576.634 689.369H574.444C573.616 689.369 572.984 690.221 573.008 691.096C573.057 692.021 573.762 692.653 574.59 692.653H576.78C577.607 692.653 578.24 691.777 578.215 690.926C578.167 690.002 577.461 689.369 576.634 689.369Z" fill="#E7D6C4"/>
<path d="M601.406 686.304C601.357 687.058 600.432 687.447 599.945 687.788C599.434 688.128 598.948 688.518 598.485 688.931C597.317 687.934 596.174 686.669 595.663 685.185C596.222 685.501 596.928 685.526 597.488 684.918C599.434 682.899 602.038 682.29 602.233 678.958C602.282 678.034 601.406 677.377 600.651 677.401C597.317 677.45 593.278 678.569 592.475 682.68C591.696 686.62 594.884 690.269 597.561 692.288C598.291 692.823 599.021 692.823 599.678 692.142C601.625 690.123 604.228 689.515 604.423 686.182C604.52 684.017 601.503 684.212 601.406 686.304Z" fill="#E7D6C4"/>
<path d="M384.738 349.499C384.908 349.839 385.079 350.204 385.298 350.52C386.441 352.32 388.826 350.472 387.682 348.696C386.928 347.504 386.733 346.118 385.784 345.023C384.373 343.345 382.256 343.174 380.358 343.296C379.166 343.393 378.776 344.804 379.433 345.801L382.134 349.766C382.962 350.983 384.349 350.496 384.738 349.499Z" fill="#E7D6C4"/>
<path d="M373.958 331.133L375.759 329.893C376.44 329.43 376.489 328.36 375.954 327.655C375.394 326.901 374.445 326.779 373.764 327.241L371.963 328.482C371.282 328.944 371.233 330.014 371.768 330.72C372.328 331.449 373.277 331.571 373.958 331.133Z" fill="#E7D6C4"/>
<path d="M355.221 347.601C354.832 346.969 355.392 346.117 355.611 345.558C355.83 344.974 356.024 344.39 356.17 343.782C357.703 343.952 359.358 344.342 360.623 345.29C359.991 345.339 359.382 345.728 359.261 346.531C358.798 349.28 356.973 351.25 358.701 354.12C359.188 354.899 360.283 354.972 360.891 354.534C363.616 352.636 366.317 349.426 364.687 345.582C363.105 341.885 358.433 340.669 355.075 340.498C354.175 340.45 353.567 340.887 353.396 341.812C352.934 344.561 351.109 346.531 352.837 349.401C353.956 351.25 356.316 349.401 355.221 347.601Z" fill="#E7D6C4"/>
<path d="M663.603 299.049C663.578 299 663.751 298.975 663.603 299.049V299.049Z" fill="#B688AA"/>
<path d="M685.235 531.742C681.731 542.178 646.472 540.134 627.832 539.356C609.168 538.578 597.634 518.266 597.634 518.266C597.634 518.266 586.805 490.171 580.819 470.127C576.415 455.41 579.262 414.544 577.753 406.03C576.244 397.516 575.806 386.619 575.806 386.619C575.806 386.619 596.198 354.753 602.208 342.469C608.243 330.185 617.563 304.278 645.839 301.359C660.463 299.851 663.164 299.194 663.578 299.024C663.602 299.097 664.016 299.292 666.547 299.535C675.258 300.362 685.722 301.189 685.576 302.503C685.43 303.816 704.775 317.706 690.637 376.67C690.54 377.108 690.516 378.008 690.589 379.273C691.075 389.149 696.185 421.501 699.3 433.761C703.729 451.129 705.018 472.827 685.235 531.742Z" fill="#A98267"/>
<path d="M690.613 379.321C684.019 378.859 675.964 378.081 665.793 376.573C659.685 375.673 653.942 373.581 648.686 370.345C644.501 367.767 640.631 364.459 637.176 360.542C631.312 353.853 628.708 347.699 628.611 347.455L629.803 346.945L629.998 346.847L630.995 346.434C631.044 346.531 633.575 352.515 639.171 358.888C644.306 364.726 653.163 372.072 666.133 373.994C676.134 375.478 684.091 376.256 690.637 376.719C690.564 377.156 690.54 378.056 690.613 379.321Z" fill="white"/>
<path d="M675.794 377.497C671.097 381.364 658.736 382.435 658.225 382.483L658.006 379.881C661.34 379.589 670.757 378.275 674.139 375.478L675.794 377.497Z" fill="white"/>
<path d="M613.816 401.822C617.125 442.883 602.914 465.019 582.45 456.14C551.205 442.591 537.676 450.545 530.911 445.413C524.122 440.28 510.495 477.789 510.495 477.789C510.495 477.789 508.305 479.614 506.431 481.949C505.506 483.092 504.679 484.333 504.217 485.549C504.217 485.549 499.18 486.984 498.158 481.341C498.158 481.341 496.795 479.735 495.968 480.952C495.116 482.168 493.194 484.625 490.079 483.603C488.229 482.995 488.424 481.706 488.059 479.638C487.816 478.251 487.305 476.5 485.747 474.335C485.747 474.335 483.995 472 482.122 471.805C482.122 471.805 477.571 480.319 474.749 480.83C471.926 481.341 456.669 467.403 451.169 463.365C451.169 463.365 428.49 464.021 417.759 457.478C407.028 450.934 395.98 389.878 410.994 377.619C426.008 365.359 477.231 351.056 477.231 351.056C477.231 351.056 509.132 369.178 542.761 375.989C572.424 382.021 610.896 365.748 613.816 401.822Z" fill="#FFC193"/>
<path d="M487.159 386.886C487.159 386.886 487.402 389.757 492.439 396.276C497.452 402.795 514.948 433.542 509.375 448.842C509.375 448.842 503.049 459.4 493.242 465.797C493.242 465.797 486.283 470.078 485.334 473.776C485.334 473.776 487.11 476.208 487.499 477.449C487.499 477.449 496.211 470.297 500.567 470.978C504.922 471.659 509.667 478.568 509.667 478.568C509.667 478.568 517.114 475.284 518.671 475.138C520.228 474.992 534.22 481.195 537.14 479.735C540.06 478.276 546.509 475.114 546.509 461.224C546.509 447.31 546.947 410.944 540.815 404.084C534.683 397.249 523.611 391.046 499.545 386.911C499.472 386.911 486.258 384.332 487.159 386.886Z" fill="#231F20"/>
<path d="M458.08 455.994L457.326 453.513L457.715 454.753L457.326 453.513C457.423 453.488 466.597 450.594 467.741 444.731C468.86 438.918 465.867 435.61 465.842 435.561L467.765 433.785C467.935 433.955 471.658 438.115 470.296 445.194C468.86 452.613 458.518 455.848 458.08 455.994Z" fill="#231F20"/>
<path d="M467.498 448.424L465.769 450.37L469.281 453.487L471.01 451.541L467.498 448.424Z" fill="#231F20"/>
<path d="M474.463 441.178L469.189 441.424L469.31 444.024L474.585 443.778L474.463 441.178Z" fill="#231F20"/>
<path d="M438.443 428.166C438.443 428.166 428.441 442.421 433.381 447.772C438.321 453.099 446.497 448.477 447.3 442.615C448.103 436.753 450.317 429.99 450.78 428.847C451.242 427.704 455.719 418.022 451.412 416.271C447.13 414.52 444.039 417.998 443.382 419.458C442.677 420.893 438.54 423.642 438.443 428.166Z" fill="#231F20"/>
<path d="M417.004 393.211C417.004 393.211 429.22 402.138 427.736 412.987C426.251 423.861 418.221 443.856 421.458 454.389C424.694 464.921 428.32 464.532 430.072 472.705C430.072 472.705 420.557 481.584 411.602 476.038C411.602 476.038 392.987 472.778 388.193 452.175C388.193 452.175 385.882 436.437 382.913 433.25C382.913 433.25 380.723 444.342 384.787 449.475C384.787 449.475 382.718 454.121 377.341 444.95C371.963 435.78 372.109 427.801 374.201 420.261C374.201 420.261 371.792 389.441 385.906 373.629C400.02 357.818 403.426 360.664 404.035 358.159C404.643 355.653 403.791 347.869 413.622 342.907C423.453 337.944 436.252 331.133 472.096 343.199C472.096 343.199 495.846 349.11 505.19 363.778C505.19 363.778 503.073 369.64 497.062 369.956C497.062 369.956 482.925 363.51 481.489 377.546C481.489 377.546 481.319 381.024 484.239 383.943C484.239 383.943 483.728 386.959 475.089 380.294C466.451 373.629 464.48 377.716 460.319 378.738C456.157 379.759 449.295 377.011 440.389 383.408C431.483 389.781 427.517 388.395 423.429 387.811C419.365 387.227 415.569 392.068 417.004 393.211Z" fill="#231F20"/>
<path d="M695.066 557.381C695.066 557.381 710.81 549.621 708.839 546.751C706.892 543.88 702.269 549.305 702.269 549.305C702.269 549.305 703.242 543.88 700.59 543.516C697.937 543.151 696.088 554.973 695.066 557.381Z" fill="#FF939C"/>
<path d="M515.897 353.391C515.897 353.391 531.641 345.631 529.67 342.761C527.723 339.89 523.1 345.315 523.1 345.315C523.1 345.315 524.073 339.89 521.421 339.525C518.768 339.16 516.943 350.982 515.897 353.391Z" fill="#FF939C"/>
<path d="M505.336 340.207C505.263 340.985 494.337 326.39 496.795 325.32C499.253 324.249 503.049 330.16 503.049 330.16C503.049 330.16 502.757 324.322 505.02 324.42C507.283 324.541 505.579 337.774 505.336 340.207Z" fill="#FF939C"/>
<path opacity="0.3" d="M519.571 462.367C519.547 462.367 519.547 462.367 519.523 462.367C519.401 462.367 519.304 462.367 519.182 462.367C519.158 462.367 519.133 462.367 519.109 462.367C519.085 462.367 519.06 462.367 519.036 462.343C519.012 462.343 518.939 462.318 518.866 462.294C518.647 462.051 518.306 461.905 517.965 461.905C517.698 461.905 517.381 461.978 517.114 462.026C516.408 462.148 515.994 462.926 516.14 463.583C516.286 464.264 516.919 464.629 517.576 464.581C518.33 464.994 519.328 465.043 520.155 464.921C520.861 464.824 521.275 464.021 521.129 463.364C520.983 462.61 520.277 462.245 519.571 462.367Z" fill="white"/>
<path opacity="0.3" d="M519.109 448.818C518.282 448.599 517.43 448.721 516.603 448.867C515.897 448.988 515.483 449.767 515.629 450.423C515.8 451.153 516.505 451.518 517.187 451.396C517.406 451.348 517.625 451.324 517.844 451.299C517.771 451.324 518.111 451.299 518.16 451.299C518.209 451.299 518.257 451.299 518.306 451.299C518.33 451.299 518.33 451.299 518.355 451.324C519.036 451.494 519.766 451.129 519.985 450.448C520.18 449.767 519.79 448.988 519.109 448.818Z" fill="white"/>
<path opacity="0.3" d="M529.305 444.44L528.283 444.634C527.577 444.756 527.163 445.534 527.309 446.191C527.48 446.921 528.185 447.286 528.867 447.164L529.889 446.969C530.594 446.848 531.008 446.069 530.862 445.413C530.716 444.707 530.01 444.318 529.305 444.44Z" fill="white"/>
<path opacity="0.3" d="M518.014 428.482C516.821 428.312 515.726 428.409 514.777 429.261C514.242 429.723 514.242 430.599 514.729 431.109C515.24 431.645 516.043 431.62 516.578 431.158C516.675 431.085 516.7 431.061 516.7 431.061C516.7 431.061 516.7 431.085 516.821 431.012C516.675 431.085 516.992 431.012 516.919 431.012C517.259 430.988 517.624 431.061 517.965 431.109C518.671 431.207 519.279 430.501 519.304 429.845C519.304 429.066 518.719 428.58 518.014 428.482Z" fill="white"/>
<path opacity="0.3" d="M514.291 413.79C513.196 413.717 512.15 413.644 511.055 413.814C510.349 413.936 509.935 414.714 510.081 415.371C510.252 416.101 510.957 416.466 511.639 416.344C512.49 416.198 513.366 416.32 514.218 416.368C515.897 416.514 515.97 413.912 514.291 413.79Z" fill="white"/>
<path opacity="0.3" d="M504.363 395.449L501.905 395.108C501.199 395.011 500.591 395.716 500.567 396.373C500.542 397.151 501.126 397.614 501.832 397.711L504.29 398.051C504.995 398.149 505.604 397.443 505.628 396.787C505.652 396.033 505.044 395.57 504.363 395.449Z" fill="white"/>
<path opacity="0.3" d="M522.37 399.389C521.518 398.83 520.472 398.635 519.474 398.781C518.768 398.903 518.355 399.681 518.501 400.338C518.671 401.044 519.328 401.408 520.009 401.311C520.058 401.311 520.107 401.311 520.155 401.311C520.204 401.311 520.374 401.335 520.423 401.335C520.52 401.36 520.642 401.384 520.739 401.433C520.739 401.433 520.739 401.433 520.764 401.433C520.861 401.481 520.934 401.53 521.031 401.579C521.615 401.968 522.467 401.725 522.832 401.141C523.197 400.557 522.954 399.779 522.37 399.389Z" fill="white"/>
<path opacity="0.3" d="M534.05 412.72C533.222 412.355 532.395 411.99 531.519 411.844C530.813 411.722 530.108 411.99 529.889 412.72C529.718 413.328 530.059 414.228 530.765 414.349C531.665 414.495 532.492 414.86 533.295 415.225C533.953 415.517 534.731 414.958 534.926 414.349C535.145 413.595 534.683 413.012 534.05 412.72Z" fill="white"/>
<path opacity="0.3" d="M537.067 420.649C535.802 420.114 534.488 419.701 533.101 419.895C532.395 419.993 531.981 420.82 532.127 421.452C532.298 422.182 532.979 422.522 533.685 422.425C534.561 422.304 535.558 422.79 536.337 423.131C536.994 423.398 537.773 422.863 537.967 422.255C538.162 421.525 537.724 420.941 537.067 420.649Z" fill="white"/>
<path opacity="0.3" d="M532.371 434.15C531.568 433.615 530.692 433.347 529.718 433.493C529.013 433.59 528.599 434.417 528.745 435.05C528.915 435.78 529.621 436.145 530.302 436.023C529.962 436.072 530.229 436.023 530.327 436.023C530.351 436.023 530.351 436.023 530.351 436.023C530.375 436.023 530.424 436.047 530.448 436.047C530.497 436.072 530.546 436.072 530.594 436.096C530.594 436.096 530.594 436.096 530.619 436.096C530.765 436.169 530.886 436.242 531.008 436.339C531.592 436.728 532.444 436.485 532.809 435.901C533.198 435.317 532.955 434.539 532.371 434.15Z" fill="white"/>
<path opacity="0.3" d="M541.301 452.929C540.206 451.834 538.746 451.25 537.213 451.469C536.508 451.567 536.094 452.394 536.24 453.026C536.41 453.756 537.092 454.096 537.797 453.999C538.381 453.926 539.063 454.364 539.403 454.705C540.596 455.897 542.494 454.121 541.301 452.929Z" fill="white"/>
<path opacity="0.3" d="M535.753 472.024C534.853 471.878 534.026 471.513 533.223 471.148C532.566 470.856 531.787 471.416 531.592 472.024C531.373 472.778 531.836 473.362 532.468 473.654C533.296 474.019 534.123 474.384 534.999 474.529C535.705 474.651 536.41 474.384 536.629 473.654C536.824 473.021 536.459 472.146 535.753 472.024Z" fill="white"/>
<path opacity="0.3" d="M502.051 464.994C502.027 464.994 502.002 464.994 501.954 464.994C501.856 464.994 501.759 464.994 501.686 464.994C501.467 464.994 501.248 464.97 501.029 464.994C500.421 465.019 499.788 465.213 499.399 465.7C498.961 466.259 498.815 466.965 499.35 467.548C499.788 468.011 500.737 468.156 501.199 467.597C501.248 467.597 501.297 467.597 501.37 467.597C501.808 467.621 502.221 467.621 502.659 467.548C503.365 467.451 503.779 466.624 503.633 465.992C503.438 465.262 502.757 464.921 502.051 464.994Z" fill="white"/>
<path opacity="0.3" d="M417.491 408.584C417.053 408.025 416.128 408.073 415.642 408.536C415.082 409.071 415.155 409.825 415.593 410.384C416.469 411.528 416.128 413.449 415.617 414.909C415.325 415.809 414.887 416.636 414.425 417.463C414.011 418.168 413.476 418.898 413.087 419.36C412.624 419.895 412.503 420.649 413.038 421.209C413.5 421.695 414.401 421.793 414.887 421.258C417.686 418.071 420.435 412.428 417.491 408.584Z" fill="white"/>
<path opacity="0.3" d="M399.801 427.947C397.781 426.293 396.881 423.763 396.418 421.258C396.102 419.603 393.571 420.212 393.888 421.841C394.423 424.736 395.567 427.801 397.903 429.723C398.462 430.185 399.168 430.306 399.752 429.771C400.214 429.333 400.336 428.385 399.801 427.947Z" fill="white"/>
<path opacity="0.3" d="M400.312 402.09C399.801 402.211 399.679 402.187 399.411 402.017C399.241 401.919 398.925 401.506 398.73 401.19C398.17 400.241 397.83 399.195 397.246 398.271C396.856 397.662 396.151 397.371 395.494 397.735C394.91 398.052 394.569 398.903 394.958 399.487C395.64 400.557 396.005 401.798 396.735 402.844C397.708 404.279 399.168 405.057 400.92 404.619C402.526 404.206 401.942 401.676 400.312 402.09Z" fill="white"/>
<path opacity="0.3" d="M412.333 369.275C412.041 368.715 411.14 368.326 410.58 368.74C407.101 371.197 404.181 375.04 405.251 379.516C405.641 381.146 408.171 380.562 407.782 378.932C407.028 375.697 409.291 372.826 411.797 371.051C412.381 370.637 412.698 369.956 412.333 369.275Z" fill="white"/>
<path opacity="0.3" d="M446.765 365.115C444.842 366.259 442.628 368.132 440.243 367.84C439.537 367.767 438.929 368.448 438.905 369.105C438.88 369.859 439.464 370.37 440.17 370.443C443.066 370.783 445.645 368.813 447.981 367.402C449.417 366.551 448.2 364.24 446.765 365.115Z" fill="white"/>
<path opacity="0.3" d="M435.547 344.853C431.045 344.318 423.623 344.877 422.358 350.326C421.993 351.956 424.475 352.71 424.864 351.056C425.108 350.058 425.448 349.572 426.276 348.915C426.203 348.988 426.495 348.769 426.495 348.769C426.616 348.696 426.738 348.623 426.86 348.55C427.103 348.404 427.371 348.283 427.638 348.185C428.052 348.015 428.612 347.845 429.147 347.723C431.191 347.237 433.333 347.212 435.498 347.456C436.204 347.528 436.812 346.847 436.837 346.191C436.837 345.437 436.253 344.926 435.547 344.853Z" fill="white"/>
<path opacity="0.3" d="M466.353 354.948C463.798 353.44 460.878 351.129 457.715 351.931C456.084 352.345 456.668 354.899 458.299 354.461C459.442 354.169 460.586 354.632 461.608 355.142C462.776 355.726 463.871 356.48 465.015 357.161C466.426 358.037 467.789 355.799 466.353 354.948Z" fill="white"/>
<path opacity="0.3" d="M474.457 367.256C473.264 367.889 471.999 367.84 470.709 367.475C469.103 367.013 468.349 369.518 469.979 369.981C471.902 370.516 473.873 370.491 475.673 369.567C477.158 368.789 475.941 366.478 474.457 367.256Z" fill="white"/>
<path opacity="0.3" d="M413.379 438.869C413.16 438.188 412.551 437.726 411.821 437.896C411.164 438.042 410.629 438.796 410.848 439.453C411.602 441.861 411.383 444.294 411.164 446.75C410.921 449.45 410.605 452.126 410.459 454.826C410.386 456.505 412.99 456.578 413.063 454.899C413.209 452.199 413.525 449.523 413.768 446.823C414.012 444.148 414.206 441.448 413.379 438.869Z" fill="white"/>
<path opacity="0.3" d="M413.866 466.016C411.335 465.481 409.461 463.778 407.393 462.343C406.809 461.929 405.957 462.197 405.592 462.781C405.203 463.413 405.446 464.167 406.03 464.581C408.293 466.162 410.362 467.938 413.136 468.521C413.817 468.667 414.547 468.351 414.766 467.646C414.936 466.989 414.547 466.162 413.866 466.016Z" fill="white"/>
<path opacity="0.3" d="M384.057 416.149C384.178 414.471 381.575 414.398 381.453 416.076C381.283 418.412 380.674 421.136 381.988 423.277C382.353 423.885 383.083 424.177 383.74 423.812C384.324 423.496 384.665 422.644 384.276 422.06C383.789 421.282 383.765 420.406 383.765 419.506C383.813 418.387 383.984 417.268 384.057 416.149Z" fill="white"/>
<path opacity="0.3" d="M385.541 387.324C384.981 386.984 384.057 387.13 383.74 387.762C383.108 389.1 382.986 390.511 382.718 391.946C382.572 392.651 382.864 393.357 383.594 393.576C384.227 393.77 385.079 393.381 385.2 392.7C385.419 391.533 385.444 390.219 385.955 389.149C386.271 388.468 386.198 387.713 385.541 387.324Z" fill="white"/>
<path d="M506.455 481.949C505.531 483.092 504.703 484.333 504.241 485.549C504.241 485.549 499.204 486.984 498.182 481.341C498.182 481.341 496.819 479.735 495.992 480.951C495.14 482.168 493.218 484.625 490.103 483.603C488.254 482.995 488.449 481.706 488.083 479.638C489.738 478.981 491.417 478.397 493.218 478.154C495.213 477.886 497.257 477.668 499.253 478.057C501.978 478.568 504.411 480.051 506.455 481.949Z" fill="#FF939C"/>
<path d="M459.54 344.025C448.127 339.355 437.129 331.133 424.183 332.495C422.65 332.666 421.141 332.982 419.681 333.42C418.075 333.906 416.567 334.587 414.961 335.049C411.505 336.022 408.098 337.068 405.689 339.939C404.521 341.325 403.621 342.858 402.891 344.512C402.112 346.239 401.48 347.99 401.236 349.863C400.823 352.88 401.82 355.847 402.575 358.791C400.117 359.885 397.781 361.296 395.445 362.658C393.766 363.631 392.038 364.58 390.238 365.285C388.753 365.869 387.317 366.575 385.93 367.353C380.163 370.588 375.175 375.453 372.815 381.729C372.231 383.262 371.695 384.77 371.428 386.4C371.136 388.175 371.014 389.975 370.941 391.775C370.868 393.673 370.795 395.57 370.6 397.443C370.406 399.462 370.162 401.481 370.016 403.5C369.773 407.173 369.213 410.846 368.994 414.519C368.775 418.241 369.165 421.914 370.527 425.417C371.428 427.752 372.79 429.844 374.396 431.742C375.954 433.59 377.73 435.293 379.117 437.288C379.531 437.872 380.188 438.188 380.869 437.823C381.453 437.507 381.818 436.655 381.404 436.071C379.287 433.006 376.319 430.598 374.421 427.412C372.498 424.201 371.574 420.674 371.525 416.928C371.476 413.303 372.109 409.727 372.425 406.127C372.62 404.133 372.693 402.138 372.912 400.143C373.131 398.124 373.35 396.081 373.447 394.062C373.593 390.73 373.496 387.227 374.688 384.064C375.248 382.605 375.783 381.145 376.538 379.759C377.292 378.397 378.217 377.107 379.239 375.94C381.331 373.532 383.886 371.537 386.636 369.932C387.999 369.129 389.435 368.423 390.919 367.791C392.671 367.061 394.35 366.234 396.029 365.31C398.414 363.972 400.774 362.439 403.28 361.32C403.962 362.075 405.495 361.588 405.543 360.42C405.908 360.299 406.273 360.202 406.638 360.104C408.269 359.666 407.685 357.137 406.054 357.574C405.689 357.672 405.349 357.769 405.008 357.891C404.278 355.093 403.353 352.247 403.937 349.401C404.302 347.625 405.057 345.874 405.908 344.293C406.711 342.785 407.733 341.398 409.072 340.304C410.386 339.233 412.089 338.674 413.671 338.187C414.498 337.944 415.35 337.701 416.177 337.458C417.053 337.214 417.881 336.849 418.757 336.533C421.701 335.439 424.791 334.903 427.93 335.001C433.26 335.147 438.394 337.044 443.212 339.233C448.444 341.617 453.505 344.415 458.834 346.579C459.491 346.847 460.27 346.312 460.465 345.704C460.659 344.901 460.197 344.293 459.54 344.025Z" fill="#231F20"/>
<path d="M417.126 472.048C416.615 472.973 415.983 473.459 414.912 473.97C413.817 474.505 412.552 474.797 411.262 474.992C409.972 475.186 408.682 475.235 407.368 475.186C406.784 475.162 406.2 475.113 405.616 475.04C405.178 474.992 404.716 474.894 404.132 474.749C401.139 474.019 398.292 472.73 395.834 470.832C393.255 468.862 391.527 466.162 390.505 463.097C388.996 458.597 388.996 453.756 388.85 449.086C388.777 447.067 388.85 445.072 388.923 443.053C388.996 441.083 389.021 439.015 388.437 437.118C387.95 435.512 385.419 436.096 385.906 437.701C386.855 440.912 386.101 444.391 386.198 447.675C386.32 451.761 386.344 455.872 387.025 459.91C387.634 463.583 388.972 467.159 391.332 470.078C393.352 472.584 396.151 474.481 399.071 475.77C402.502 477.303 406.103 478.008 409.875 477.765C413.233 477.546 417.589 476.67 419.341 473.411C420.144 471.927 417.929 470.565 417.126 472.048Z" fill="#231F20"/>
<path d="M447.057 489.173C445.159 488.76 442.969 488.565 441.679 490.341C441.241 490.925 442.117 491.63 442.531 491.046C443.48 489.781 445.013 489.903 446.424 490.171V490.56C446.449 491.29 447.568 491.192 447.544 490.463L447.519 489.66C447.495 489.417 447.276 489.222 447.057 489.173Z" fill="#231F20"/>
<path d="M403.548 490.681C402.672 490.219 401.845 490.025 400.872 490.292C400.02 490.536 400.482 491.8 401.334 491.557C401.967 491.387 402.453 491.606 402.989 491.898C403.767 492.336 404.327 491.095 403.548 490.681Z" fill="#231F20"/>
<path d="M354.321 511.844C354.321 511.844 337.482 531.767 354.467 597.639C359.407 616.832 347.167 675.163 368.97 686.182C372.814 688.128 383.935 677.109 393.863 671.977C412.235 662.465 415.617 618.923 426.787 613.28C440 606.591 456.376 611.602 469.2 604.45C495.87 589.539 503.34 605.326 503.462 605.155C503.243 605.618 589.482 535.44 586.44 529.237C583.374 523.034 581.938 520.407 573.057 514.472C560.452 506.055 542.591 507.028 538.284 505.715C533.977 504.425 518.014 492.555 515.045 492.409C512.076 492.263 509.959 500.217 509.959 500.217C507.599 500.655 506.066 498.612 505.628 496.495C505.506 495.839 505.336 495.133 505.092 494.476C504.557 492.993 503.535 491.63 501.199 491.29C497.817 490.803 497.111 496.982 496.6 497.444C496.089 497.906 495.675 497.858 495.724 497.152C495.773 496.447 496.965 492.822 493.923 490.755C490.882 488.687 488.984 491.679 487.937 493.795C487.889 493.893 487.84 493.99 487.791 494.111C486.721 496.228 484.579 499.463 478.155 500.485C471.39 501.531 467.181 499.487 461.413 503.963C455.646 508.463 460.513 522.28 460.951 531.84C461.243 538.602 467.375 556.457 447.568 563.633C438.929 566.771 422.772 564.265 415.763 558.549C406.054 550.619 406.127 540.062 400.458 526.902C389.799 502.309 354.321 511.844 354.321 511.844Z" fill="#FFD0AE"/>
<path d="M509.838 524.396C508.913 523.472 504.752 524.81 502.343 530.307C499.91 535.804 500.64 538.48 502.586 539.283C504.509 540.086 508.061 536.437 509.497 533.445C510.933 530.453 511.59 526.123 509.838 524.396Z" fill="#FF939C"/>
<path d="M525.825 535.683L527.042 533.372C526.969 533.323 519.936 529.553 521.177 524.542C522.516 519.19 530.132 516.369 530.205 516.344L529.305 513.887C528.94 514.009 520.301 517.244 518.622 523.909C516.919 530.915 525.46 535.488 525.825 535.683Z" fill="#231F20"/>
<path d="M521.48 530.121L517.261 532.782L518.651 534.983L522.869 532.322L521.48 530.121Z" fill="#231F20"/>
<path d="M519.684 524.152L516.135 524.302L516.245 526.903L519.795 526.752L519.684 524.152Z" fill="#231F20"/>
<path d="M516.762 515.576L515.619 517.915L521.938 521.001L523.081 518.662L516.762 515.576Z" fill="#231F20"/>
<path d="M543.735 518.607C543.735 518.607 543.053 510.433 548.09 512.331C553.152 514.228 551.278 522.158 547.944 526.926C544.611 531.669 543.248 536.242 541.204 535.391C539.16 534.539 539.281 528.069 541.399 524.615C543.516 521.112 542.226 520.48 543.735 518.607Z" fill="#231F20"/>
<path d="M599.824 581.39C599.775 581.609 599.727 581.803 599.702 582.022C599.581 582.533 599.483 583.044 599.362 583.555C599.045 584.844 598.68 586.109 598.267 587.349C597.245 590.487 595.955 593.455 594.471 596.374C593.814 596.568 593.23 596.982 592.889 597.614C588.047 606.104 581.939 613.207 574.517 619.775C570.77 623.083 567.339 625.71 563.275 628.532C559.235 631.329 555.05 633.932 550.767 636.389C546.095 639.064 541.326 641.521 536.727 644.319C531.909 647.286 527.237 650.473 522.564 653.684C520.253 655.265 517.965 656.87 515.654 658.451C513.439 659.96 511.176 661.37 509.035 662.952C504.801 666.114 500.834 669.617 496.965 673.192C493.194 676.671 489.471 680.222 485.529 683.506C481.732 686.668 477.523 689.417 473.362 692.409C469.444 695.231 465.551 698.126 461.511 700.753C459.516 702.042 457.472 703.283 455.379 704.426C454.357 704.985 453.335 705.496 452.289 706.007C451.121 706.566 450.123 707.004 449.174 707.369C447.471 708.05 445.743 708.634 443.991 709.145C443.066 709.412 442.166 709.656 441.217 709.875C440.803 709.972 440.365 710.069 439.951 710.167C439.732 710.215 439.513 710.24 439.319 710.288C439.246 710.288 438.71 710.385 438.686 710.385C434.793 710.848 430.875 710.556 426.982 711.164C423.161 711.772 419.9 713.621 417.126 716.248C415.204 708.099 417.37 699.585 419.097 692.774C422.48 679.322 448.079 660.203 448.079 660.203C450.95 650.619 454.016 641.959 457.155 634.175C457.545 633.226 457.934 632.278 458.323 631.353C476.622 587.422 496.819 572.292 496.819 572.292C496.041 578.592 505.093 582.144 505.093 582.144C505.361 582.217 505.604 582.29 505.872 582.338C506.918 582.557 507.891 582.606 508.816 582.509C518.184 581.56 520.472 565.554 520.472 565.554C529.086 553.927 545.755 550.862 558.311 546.799C560.014 546.24 561.644 545.656 563.177 545.048C566.049 543.88 568.531 542.567 570.453 540.937C580.795 532.058 580.673 520.042 580.673 520.042C584.08 524.128 587.025 528.239 589.555 532.375C590.285 533.542 590.942 534.734 591.599 535.902C596.101 544.099 598.899 552.272 600.165 560.154C600.457 562.002 600.676 563.851 600.797 565.676C601.162 571.1 600.822 576.379 599.824 581.39Z" fill="#FF939C"/>
<path d="M487.767 494.111C488.132 494.817 488.716 495.449 489.349 495.984C490.76 497.201 491.758 498.709 493.583 499.39C495.238 500.022 496.917 499.974 498.571 499.317C501.126 498.271 503.389 496.593 505.117 494.452C504.582 492.968 503.56 491.606 501.224 491.265C497.841 490.779 497.136 496.957 496.625 497.42C496.114 497.882 495.7 497.833 495.749 497.128C495.797 496.422 496.99 492.798 493.948 490.73C490.906 488.663 489.008 491.655 487.962 493.771C487.864 493.917 487.816 494.014 487.767 494.111Z" fill="#FF939C"/>
<path d="M523.294 562.003C525.217 559.181 527.504 556.651 529.791 554.146C532.322 551.348 535.096 548.794 538.065 546.483C540.79 544.343 543.71 542.324 546.849 540.815C551.959 538.359 557.532 537.045 562.934 535.367C567.995 533.81 573.178 531.888 577.023 528.191C578.605 526.683 579.846 524.931 580.819 522.961C581.574 521.453 583.837 522.718 583.107 524.226C580.576 529.334 576.123 532.861 571.013 535.172C565.805 537.507 560.233 538.796 554.831 540.524C552.227 541.351 549.721 542.251 547.336 543.491C544.197 545.097 541.228 547.237 538.503 549.475C535.632 551.81 533.101 554.462 530.594 557.186C528.331 559.619 526.19 562.197 524.487 565.068C523.367 566.941 522.345 569.032 522.126 571.246C522.053 571.951 521.591 572.56 520.837 572.56C520.18 572.56 519.45 571.976 519.523 571.27C519.815 567.841 521.421 564.776 523.294 562.003Z" fill="#FF939C"/>
<path d="M580.235 635.148C580.795 634.905 581.427 635.318 581.792 635.708C582.23 636.17 582.547 636.754 582.62 637.386C582.693 638.091 582.206 638.651 581.549 638.797C580.843 638.943 580.527 637.872 581.257 637.727C581.306 637.727 581.354 637.702 581.403 637.702H581.427C581.427 637.702 581.452 637.702 581.452 637.678C581.452 637.678 581.476 637.678 581.476 637.654L581.5 637.629C581.5 637.605 581.525 637.581 581.525 637.556V637.532C581.525 637.483 581.525 637.459 581.525 637.41C581.525 637.508 581.5 637.264 581.476 637.216C581.476 637.191 581.452 637.167 581.452 637.143C581.452 637.143 581.403 637.045 581.403 637.021C581.354 636.924 581.306 636.851 581.257 636.754C581.233 636.729 581.208 636.681 581.184 636.656C581.16 636.632 581.111 636.583 581.111 636.559C581.038 636.486 580.989 636.413 580.916 636.364L580.892 636.34C580.892 636.34 580.819 636.291 580.795 636.267C580.77 636.243 580.722 636.243 580.697 636.218H580.673C580.649 636.243 580.624 636.291 580.624 636.316C580.576 636.437 580.551 636.559 580.551 636.681L580.916 636.754C581.622 636.9 581.354 637.97 580.649 637.848L579.846 637.702C579.602 637.654 579.432 637.41 579.408 637.167C579.359 636.389 579.456 635.464 580.235 635.148Z" fill="#231F20"/>
<path d="M586.586 510.798L588.362 511.674C589.141 512.063 588.484 513.255 587.705 512.866L585.929 511.99C585.15 511.601 585.808 510.433 586.586 510.798Z" fill="#231F20"/>
<path d="M400.214 666.99C400.19 666.722 400.141 666.454 400.068 666.211C399.679 664.8 397.757 665.506 398.122 666.917C398.365 667.841 398.219 668.79 398.608 669.714C399.192 671.101 400.531 671.66 401.821 671.952C402.624 672.147 403.183 671.295 402.94 670.492L401.991 667.33C401.699 666.357 400.677 666.406 400.214 666.99Z" fill="#E7D6C4"/>
<path d="M403.524 681.244L402.088 681.682C401.553 681.852 401.309 682.533 401.504 683.093C401.723 683.701 402.307 683.968 402.842 683.798L404.278 683.36C404.813 683.19 405.057 682.509 404.862 681.949C404.643 681.366 404.059 681.074 403.524 681.244Z" fill="#E7D6C4"/>
<path d="M419.195 674.287C419.316 674.774 418.781 675.236 418.513 675.552C418.246 675.893 418.002 676.233 417.783 676.598C416.81 676.16 415.812 675.576 415.18 674.701C415.593 674.798 416.08 674.676 416.323 674.166C417.199 672.463 418.781 671.538 418.246 669.301C418.1 668.692 417.394 668.425 416.907 668.595C414.742 669.276 412.308 670.833 412.576 673.679C412.844 676.428 415.666 678.204 417.832 678.982C418.416 679.201 418.903 679.055 419.195 678.471C420.071 676.768 421.652 675.844 421.117 673.606C420.776 672.147 418.854 672.876 419.195 674.287Z" fill="#E7D6C4"/>
<path d="M599.337 583.555C591.599 611.066 584.615 627.461 554.368 648.381C551.594 650.303 548.626 652.249 545.438 654.268C543.929 655.216 542.494 656.165 541.155 657.114C529.548 665.238 523.221 673.363 518.452 681.268C517.844 682.266 517.284 683.263 516.724 684.26C509.205 697.566 504.776 710.167 485.309 721.04C456.304 737.216 396.856 720.091 372.815 695.669C371.744 694.574 370.722 693.455 369.797 692.336C367.339 689.369 365.417 686.304 364.152 683.19C363.543 681.682 362.984 680.101 362.497 678.52C362.205 677.571 361.937 676.598 361.694 675.601C358.287 661.833 359.528 645.948 363.495 632.034C363.86 630.794 364.225 629.553 364.614 628.337C369.457 613.523 377.389 601.507 385.833 597.663C404.181 589.32 416.469 600.144 442.482 582.946C468.47 565.749 496.819 572.341 496.819 572.341C495.456 583.214 510.032 599.901 510.032 599.901C510.032 599.901 567.849 572.487 590.699 573.508C592.086 573.581 593.327 573.727 594.446 574.019C598.85 575.089 600.894 578.033 599.337 583.555Z" fill="#FF939C"/>
<path d="M403.013 533.737C403.013 533.737 354.54 537.459 347.337 535.683L346.899 544.853C346.899 544.853 397.927 542.737 405.422 541.253L403.013 533.737Z" fill="#A98267"/>
<path d="M601.065 565.019C600.749 562.294 600.457 559.497 599.605 556.894C598.705 554.146 597.658 551.445 596.588 548.745C595.931 547.091 595.395 545.413 594.689 543.783C593.935 542.032 593.035 540.353 592.061 538.723C591.112 537.118 590.09 535.586 589.093 534.029C588.144 532.569 587.073 531.183 586.416 529.577C585.71 527.874 582.961 528.75 583.691 530.453C584.688 532.861 586.294 535.026 587.73 537.215C589.239 539.502 590.699 541.861 591.818 544.367C592.353 545.559 592.718 546.799 593.205 547.991C593.765 549.402 594.324 550.813 594.884 552.224C595.906 554.851 597.099 557.6 597.537 560.373C599.094 570.273 599.727 580.417 598.656 590.414C597.61 600.071 595.006 610.093 589.677 618.315C586.732 622.864 583.423 627.169 579.992 631.329C576.853 635.124 573.251 638.383 569.626 641.716C566.097 644.951 562.618 648.284 559.965 652.273C557.751 655.581 556.023 659.23 554.32 662.806C550.84 670.225 547.798 677.887 543.564 684.917C541.52 688.298 539.16 691.485 536.386 694.282C533.344 697.347 529.67 699.731 525.801 701.604C523.611 702.674 521.299 703.526 518.914 704.085C521.664 697.664 523.173 690.755 523.83 683.75C525.265 668.279 525.971 650.327 538.892 639.551C539.501 639.04 539.768 638.286 539.306 637.556C538.917 636.948 537.919 636.632 537.311 637.143C533.734 640.11 530.789 643.638 528.55 647.724C526.433 651.567 525.046 655.8 524.073 660.057C523.051 664.435 522.467 668.887 521.956 673.338C521.323 678.69 521.129 684.066 520.253 689.393C519.377 694.745 517.771 699.901 515.435 704.693C514.072 704.839 512.709 704.912 511.346 704.864C506.017 704.693 500.907 702.529 496.065 700.51C493.826 699.561 491.539 698.734 489.324 697.761C487.256 696.861 485.309 695.669 483.484 694.38C482.852 693.917 482.024 693.869 481.465 694.501C480.978 695.036 480.954 696.082 481.586 696.52C483.557 697.907 485.601 699.196 487.791 700.193C488.911 700.704 490.079 701.069 491.198 701.531C492.512 702.066 493.802 702.626 495.092 703.185C500.08 705.277 505.19 707.272 510.616 707.661C511.687 707.734 512.782 707.758 513.853 707.71C512.223 710.604 510.324 713.353 508.183 715.932C505.19 719.532 501.929 722.962 498.255 725.856C496.43 727.291 494.459 728.581 492.391 729.651C490.322 730.721 488.108 731.402 485.845 731.962C480.345 733.324 474.603 733.251 468.981 732.862C463.433 732.473 457.91 731.938 452.41 731.232C446.911 730.527 441.29 729.627 435.742 730.113C430.559 730.575 425.521 732.108 420.363 732.789C414.985 733.494 409.778 732.838 404.619 731.159C399.606 729.529 394.885 727.024 390.335 724.372C386.028 721.867 382.134 718.656 378.63 715.105C375.224 711.675 371.914 707.758 369.651 703.502C367.948 700.339 367.072 696.763 365.758 693.455C365.174 691.947 364.687 690.366 364.225 688.809C366.902 689.588 369.749 690.05 372.523 689.807C379.725 689.174 385.614 684.455 392.209 681.974C392.939 681.706 393.377 680.952 393.133 680.174C392.914 679.468 392.063 678.958 391.333 679.249C384.787 681.731 378.801 686.62 371.598 687.009C368.824 687.155 365.953 686.474 363.3 685.55C363.032 684.406 362.813 683.263 362.692 682.12C362.473 680.052 362.132 678.057 362.108 675.966C362.083 673.898 362.229 671.855 362.546 669.811C362.765 668.4 362.911 666.965 363.178 665.554C363.397 664.362 363.738 663 364.785 662.271C366.293 661.2 364.736 658.792 363.227 659.862C361.524 661.079 360.769 662.976 360.38 664.946C359.966 666.965 359.723 669.082 359.504 671.149C359.017 675.479 359.285 679.955 360.112 684.236C358.19 683.336 356.365 682.266 354.662 681.025C354.078 680.587 353.518 680.149 352.983 679.663C352.715 679.444 352.472 679.201 352.228 678.958C351.912 678.666 351.815 678.544 351.596 678.276C350.695 677.182 349.941 675.99 349.284 674.749C347.848 672.074 346.851 669.057 346.121 666.065C344.709 660.227 344.271 653.878 346.486 648.235C348.797 642.348 353.153 637.581 356.146 632.059C357.947 628.726 358.871 625.077 359.285 621.331C359.723 617.318 359.504 613.28 359.991 609.291C360.234 607.247 360.599 605.204 360.94 603.161C361.256 601.336 361.621 599.682 362.424 598.004C363.178 596.471 364.128 595.085 365.15 593.747C366.22 592.336 367.267 590.925 368.508 589.684C370.941 587.252 373.983 585.452 377.17 584.163C380.601 582.776 384.057 581.803 387.756 581.438C391.333 581.098 394.885 581.244 398.365 581.73C394.423 582.995 390.651 584.771 387.147 587.155C381.21 591.193 376.002 596.204 371.501 601.798C369.165 604.717 367.023 607.88 365.466 611.285C364.298 613.815 363.616 616.491 363.13 619.215C362.156 624.494 361.889 629.991 362.473 635.318C363.373 643.686 366.61 652.565 374.372 656.822C376.002 657.722 377.268 655.143 375.662 654.268C371.403 651.932 368.654 647.748 367.072 643.151C365.32 638.091 364.882 632.716 365.101 627.34C365.198 624.834 365.49 622.353 365.953 619.799C366.439 617.148 367.096 614.593 368.24 612.161C369.797 608.828 371.939 605.812 374.25 602.99C376.538 600.193 379.02 597.396 381.769 595.036C386.88 590.609 392.33 586.668 398.827 584.576C400.847 583.919 402.915 583.433 404.984 583.044C406.76 583.482 408.537 583.992 410.289 584.552C414.085 585.744 417.881 587.033 421.774 587.86C425.205 588.59 428.782 588.906 432.262 589.101C437.129 589.368 442.579 589.003 446.619 585.938C447.251 585.476 447.495 584.649 447.032 583.944C446.619 583.311 445.67 583.044 445.037 583.53C442.579 585.379 439.562 586.036 436.496 586.23C433.284 586.425 430.072 586.109 426.908 585.719C422.991 585.233 419.219 584.333 415.447 583.165C414.352 582.825 413.282 582.484 412.211 582.144C415.666 581.9 419.17 581.876 422.65 581.876C426.689 581.876 430.607 581.414 434.525 580.49C438.297 579.59 441.995 578.349 445.67 577.084C447.543 576.452 449.417 575.844 451.242 575.065C453.067 574.311 454.844 573.46 456.669 572.73C460.343 571.246 464.139 570.76 468.057 570.614C472.559 570.443 477.182 570.395 481.659 570.808C485.82 571.173 490.298 572 493.778 574.506C494.41 574.968 495.238 575.016 495.797 574.384C496.284 573.849 496.308 572.827 495.676 572.365C490.152 568.376 483.022 567.816 476.403 567.719C472.778 567.67 469.127 567.622 465.502 567.889C463.482 568.035 461.487 568.327 459.516 568.789C457.642 569.227 455.817 569.981 454.065 570.735C452.24 571.514 450.439 572.365 448.59 573.07C446.765 573.776 444.867 574.335 443.017 574.968C439.343 576.208 435.644 577.376 431.824 578.179C427.931 578.981 424.061 579.03 420.095 579.054C416.056 579.079 411.992 579.2 407.977 579.687C407.028 579.809 406.054 579.93 405.13 580.1C404.74 580.003 404.327 579.906 403.937 579.809C396.54 578.106 388.656 577.79 381.283 579.711C379.506 580.173 377.803 580.83 376.1 581.511C374.396 582.192 372.766 583.019 371.209 583.968C369.651 584.941 368.191 586.084 366.853 587.325C365.563 588.541 364.493 589.952 363.397 591.339C361.183 594.185 359.163 597.25 358.409 600.85C357.995 602.869 357.703 604.936 357.411 606.98C357.119 608.999 356.9 611.018 356.779 613.061C356.681 615.08 356.73 617.099 356.608 619.118C356.487 621.112 356.195 623.083 355.757 625.029C355.002 628.288 353.469 631.159 351.669 633.98C348.238 639.356 344.174 644.416 342.714 650.765C341.302 656.87 342.3 663.633 344.101 669.544C345.001 672.536 346.242 675.455 347.946 678.082C349.625 680.685 351.912 682.606 354.467 684.309C356.487 685.647 358.677 686.742 360.915 687.642C361.524 689.977 362.254 692.336 363.154 694.574C364.054 696.861 364.785 699.22 365.685 701.507C367.51 706.153 370.479 710.167 373.715 713.937C377.024 717.756 380.723 721.21 384.811 724.154C388.972 727.146 393.596 729.651 398.292 731.743C403.232 733.957 408.439 735.562 413.841 735.927C419.146 736.292 424.353 735.051 429.512 734.005C432.043 733.494 434.598 733.056 437.177 732.886C439.951 732.716 442.725 732.984 445.499 733.275C451.048 733.859 456.547 734.784 462.119 735.148C467.74 735.538 473.313 736.219 478.983 735.878C484.166 735.562 489.373 734.419 493.997 732.059C498.231 729.894 501.929 726.756 505.287 723.424C508.645 720.091 511.736 716.418 514.388 712.502C515.508 710.823 516.53 709.096 517.43 707.345C524.681 706.153 531.641 702.383 537.019 697.639C543.102 692.263 547.19 684.99 550.67 677.766C554.198 670.468 557.118 662.854 561.158 655.824C565.903 647.603 574.03 642.324 580.308 635.416C583.934 631.426 587.195 627.024 590.261 622.596C593.156 618.412 595.517 614.01 597.293 609.242C600.749 599.901 602.087 589.903 602.087 579.979C602.063 574.968 601.649 569.981 601.065 565.019Z" fill="#FF939C"/>
<path d="M352.642 542.421C352.642 542.421 347.337 547.334 345.439 543.588C343.541 539.842 345.95 531.475 350.963 534.904L353.469 536.583C353.469 536.583 353.591 530.039 356.852 531.475C360.112 532.91 362.4 535.269 361.597 537.531C360.794 539.794 357.971 539.648 357.971 539.648C357.971 539.648 363.957 541.569 361.572 546.313C359.188 551.008 352.837 548.94 352.642 542.421Z" fill="#B688AA"/>
<path d="M368.556 579.492C368.556 579.492 365.271 586.863 361.305 581.609C357.314 576.354 360.21 574.068 363.008 573.654C365.806 573.241 359.115 565.943 364.298 564.411C369.481 562.903 373.593 569.957 371.014 573.849C371.014 573.849 377.535 573.654 376.221 578.349C374.883 583.068 371.014 583.19 368.556 579.492Z" fill="#B688AA"/>
<path d="M341.886 558.767C341.886 558.767 336.776 548.891 342.276 547.991C347.775 547.067 349.138 554.535 349.138 554.535C349.138 554.535 352.812 547.845 356.876 554.827C360.964 561.808 352.666 562.392 352.666 562.392C352.666 562.392 358.555 566.843 356.097 569.057C353.64 571.27 348.262 573.776 347.167 567.743C347.167 567.743 346.704 574.676 342.689 572.487C338.65 570.297 343.784 565.481 343.784 565.481C343.784 565.481 336.168 569.738 335.097 562.708C334.027 555.702 341.886 558.767 341.886 558.767Z" fill="#B688AA"/>
<path d="M349.649 560.129C348.821 556.481 344.32 557.794 344.028 561.005C343.638 565.529 350.598 564.289 349.649 560.129Z" fill="white"/>
<path d="M356.341 539.332C355.319 537.58 351.961 538.65 352.204 540.596C352.593 543.905 357.995 542.153 356.341 539.332Z" fill="white"/>
<path d="M369.724 573.727C369.724 573.703 369.7 573.678 369.7 573.678C368.24 570.978 365.831 573.289 366.877 575.576C368.264 578.616 370.941 576.233 369.724 573.727Z" fill="white"/>
<path d="M600.773 565.676C599.97 567.159 599.094 568.57 598.096 569.932C597.001 571.416 595.784 572.754 594.47 573.97C592.207 576.087 589.652 577.887 587 579.541C581.063 583.238 574.565 586.036 567.776 587.714C564.297 588.565 560.744 589.174 557.191 589.563C553.517 589.952 549.818 589.903 546.144 590.268C542.567 590.633 539.014 591.266 535.656 592.603C532.03 594.063 528.575 596.131 525.168 598.028C521.834 599.877 518.647 601.92 515.361 603.842C512.198 605.69 509.01 607.636 506.407 610.288C503.827 612.939 501.491 615.858 498.863 618.485C496.187 621.137 493.291 623.35 489.908 625.053C483.095 628.459 475.795 631.256 468.349 632.861C464.626 633.664 460.903 634.126 457.18 634.224C453.31 634.345 449.417 634.102 445.524 633.518C437.859 632.375 430.412 630.283 422.918 628.337C415.447 626.415 407.831 624.542 400.093 624.226C393.158 623.934 386.101 624.567 379.336 626.196C373.812 627.534 368.507 629.505 363.519 632.034C363.884 630.794 364.249 629.553 364.638 628.337C372.085 624.883 380.09 622.621 388.437 621.769C395.786 621.015 403.134 621.258 410.386 622.572C418.027 623.934 425.448 626.123 432.967 627.996C440.438 629.869 448.103 631.524 455.866 631.475C456.693 631.475 457.52 631.451 458.348 631.402C465.356 631.013 472.266 629.213 478.812 626.732C482.292 625.418 485.845 624.007 489.13 622.256C492.536 620.431 495.359 618.096 497.987 615.274C500.494 612.599 502.757 609.607 505.531 607.174C508.28 604.742 511.371 602.869 514.534 601.02C517.844 599.098 521.056 597.006 524.414 595.182C527.796 593.333 531.178 591.266 534.78 589.879C538.114 588.59 541.593 587.86 545.146 587.495C548.82 587.106 552.495 587.179 556.169 586.814C563.25 586.109 570.283 584.527 576.853 581.706C580.114 580.319 583.228 578.641 586.197 576.719C587.754 575.697 589.312 574.676 590.772 573.508C592.11 572.462 593.375 571.295 594.47 570.005C597.001 567.038 598.704 563.705 600.189 560.202C600.432 562.002 600.651 563.851 600.773 565.676Z" fill="white"/>
<path d="M554.368 648.381C551.594 650.303 548.626 652.249 545.438 654.243C543.929 655.192 542.494 656.141 541.155 657.089C534.78 659.522 527.991 661.443 521.104 660.981C513.463 660.47 506.09 658.646 498.668 656.87C491.149 655.07 483.509 653.927 475.843 653.003C468.032 652.078 460.124 651.616 452.313 652.857C445.013 654.024 437.956 656.408 431.191 659.376C424.475 662.319 418.173 665.895 411.748 669.373C405.276 672.876 398.657 675.917 391.381 677.352C383.57 678.909 375.637 679.566 367.704 678.885C365.977 678.739 364.249 678.617 362.521 678.447C362.229 677.498 361.962 676.525 361.718 675.528C364.736 675.941 367.802 676.087 370.795 676.233C378.703 676.549 386.928 675.82 394.569 673.703C401.626 671.733 408.025 668.206 414.376 664.654C420.728 661.103 427.2 657.795 433.989 655.119C440.852 652.419 448.03 650.303 455.379 649.573C463.166 648.794 471.025 649.475 478.763 650.497C486.453 651.519 493.972 652.784 501.516 654.608C508.816 656.384 516.456 658.451 524.049 658.16C531.349 657.868 538.235 655.289 544.903 652.516C548.09 651.203 551.278 649.84 554.368 648.381Z" fill="white"/>
<path d="M518.476 681.269C517.868 682.266 517.308 683.263 516.748 684.261C512.514 684.504 508.256 684.674 504.144 685.89C494.434 688.785 485.723 694.185 476.184 697.566C470.344 699.634 464.309 701.021 458.202 701.994C451.923 703.015 445.548 703.794 439.173 703.988C432.651 704.159 426.13 703.842 419.608 703.404C413.257 702.991 406.955 702.48 400.652 701.58C397.611 701.142 394.52 700.729 391.503 700.048C388.339 699.342 385.2 698.515 382.061 697.737C378.995 696.983 375.929 696.204 372.814 695.645C371.744 694.55 370.722 693.431 369.797 692.312C370.941 692.434 372.084 692.604 373.204 692.823C378.679 693.845 384.057 695.353 389.459 696.642C401.796 699.61 414.644 700.461 427.298 700.996C440.049 701.556 452.897 700.607 465.356 697.712C471.39 696.301 477.157 694.282 482.803 691.777C488.375 689.32 493.802 686.474 499.52 684.382C502.367 683.336 505.287 682.436 508.305 682.047C511.492 681.633 514.68 681.512 517.892 681.293C518.062 681.293 518.257 681.269 518.476 681.269Z" fill="white"/>
<path d="M709.423 670.03H705.262C703.413 670.03 703.559 672.901 705.408 672.901H709.593C711.418 672.901 711.248 670.03 709.423 670.03Z" fill="#231F20"/>
<path d="M711.491 681.512C709.52 681.463 707.671 680.441 705.943 679.566C704.289 678.738 702.999 681.293 704.654 682.12C706.868 683.214 709.107 684.309 711.637 684.358C712.416 684.382 713.024 683.604 713 682.849C712.951 682.047 712.27 681.536 711.491 681.512Z" fill="#231F20"/>
<path d="M365.125 490.657C362.984 490.706 360.988 491.654 358.871 491.703C357.022 491.727 357.168 494.598 359.017 494.573C361.159 494.525 363.154 493.576 365.271 493.527C367.12 493.479 366.974 490.633 365.125 490.657Z" fill="#231F20"/>
<path d="M361.962 481.633C361.232 480.951 360.429 480.587 359.553 480.392C359.334 480.295 359.09 480.222 358.847 480.222H357.801C357.387 480.222 357.046 480.416 356.779 480.733C356.535 481 356.414 481.365 356.438 481.73C356.438 481.778 356.438 481.827 356.462 481.876C356.511 482.143 356.608 482.387 356.779 482.557C357.071 482.897 357.484 483.092 357.947 483.092C358.798 483.092 359.407 483.165 360.064 483.773C361.426 485.038 363.324 482.897 361.962 481.633Z" fill="#231F20"/>
<path d="M686.111 514.423C678.032 513.012 669.808 513.255 661.632 513.377C657.47 513.425 653.285 513.45 649.124 513.182C646.253 513.012 643.43 512.598 640.583 512.014C637.614 511.406 634.572 510.628 631.798 509.558C630.411 509.022 629.073 508.414 627.783 507.685C627.151 507.32 626.956 507.174 626.372 506.736C626.129 506.541 625.885 506.322 625.642 506.103C625.545 506.006 625.447 505.933 625.374 505.836C625.423 505.057 624.912 504.206 623.914 504.206C623.257 504.206 622.722 504.23 622.211 504.717C621.773 505.13 621.749 505.957 622.089 506.444C622.26 506.663 622.454 506.833 622.698 506.979C622.941 507.539 623.501 508.025 623.963 508.414C624.936 509.29 626.056 509.971 627.199 510.604C629.754 511.99 632.577 512.914 635.375 513.693C637.955 514.398 640.583 514.958 643.235 515.396C646.885 516.004 650.633 516.15 654.307 516.223C664.698 516.442 675.185 515.396 685.503 517.196C687.328 517.536 687.936 514.739 686.111 514.423Z" fill="white"/>
</g>
<defs>
<filter id="filter0_f" x="0" y="0" width="959" height="959" filterUnits="userSpaceOnUse" color-interpolation-filters="sRGB">
<feFlood flood-opacity="0" result="BackgroundImageFix"/>
<feBlend mode="normal" in="SourceGraphic" in2="BackgroundImageFix" result="shape"/>
<feGaussianBlur stdDeviation="100" result="effect1_foregroundBlur"/>
</filter>
<clipPath id="clip0">
<rect width="378" height="437" fill="white" transform="translate(335 299)"/>
</clipPath>
</defs>
</svg>
