<svg width="25" height="25" viewBox="0 0 25 25" fill="none" xmlns="http://www.w3.org/2000/svg">
<g clip-path="url(#clip0)">
<path d="M18.0958 0H6.9042C3.08989 0 0 3.08989 0 6.9042V18.1106C0 21.9101 3.08989 25.0148 6.9042 25.0148H18.1106C21.9101 25.0148 25.0148 21.9249 25.0148 18.1106V6.9042C25 3.08989 21.8953 0 18.0958 0ZM22.7824 18.0958C22.7824 20.683 20.683 22.7824 18.0958 22.7824H6.9042C4.31697 22.7824 2.21762 20.683 2.21762 18.0958V6.9042C2.21762 4.31697 4.31697 2.21762 6.9042 2.21762H18.1106C20.6978 2.21762 22.7972 4.31697 22.7972 6.9042L22.7824 18.0958Z" fill="#231F20"/>
<path d="M12.4926 6.06055C8.94443 6.06055 6.06152 8.94346 6.06152 12.4917C6.06152 16.0398 8.94443 18.9375 12.5074 18.9375C16.0704 18.9375 18.9533 16.0546 18.9533 12.4917C18.9385 8.94346 16.0556 6.06055 12.4926 6.06055ZM12.4926 16.7199C10.1715 16.7199 8.26436 14.8275 8.26436 12.4917C8.27915 10.1705 10.1715 8.27817 12.4926 8.27817C14.8137 8.27817 16.7209 10.1705 16.7209 12.5064C16.7209 14.8275 14.8285 16.7199 12.4926 16.7199Z" fill="#231F20"/>
<path d="M19.2046 4.18359C18.7759 4.18359 18.3619 4.361 18.0515 4.65669C17.741 4.95237 17.5784 5.38111 17.5784 5.80985C17.5784 6.23859 17.7558 6.65255 18.0515 6.96301C18.3471 7.25869 18.7759 7.4361 19.2046 7.4361C19.6334 7.4361 20.0473 7.25869 20.3578 6.96301C20.6683 6.66733 20.8309 6.23859 20.8309 5.80985C20.8309 5.38111 20.6535 4.96715 20.3578 4.65669C20.0621 4.34622 19.6334 4.18359 19.2046 4.18359Z" fill="#231F20"/>
</g>
<defs>
<clipPath id="clip0">
<rect width="25" height="25" fill="white"/>
</clipPath>
</defs>
</svg>
