<svg width="24" height="21" viewBox="0 0 24 21" fill="none" xmlns="http://www.w3.org/2000/svg">
<path d="M23.6297 0.569368C23.3344 0.200953 22.8984 0 22.3922 0C22.1156 0 21.8297 0.0574152 21.5297 0.17703L1.21445 8.09076C0.136342 8.51181 -0.0089682 9.13859 0.000406631 9.4783C0.00978146 9.818 0.187903 10.4352 1.28945 10.7941C1.29413 10.7941 1.30351 10.7988 1.3082 10.7988L4.15814 11.6314L18.0329 4.39705C18.3798 4.21524 18.8016 4.35877 18.9798 4.70805C19.1204 4.98556 19.0641 5.31091 18.8673 5.52622L11.1518 13.8945L10.9315 14.8036L13.6877 17.0667L17.5032 20.2054C17.5079 20.2102 17.5079 20.2102 17.5126 20.2149C17.9345 20.5499 18.3938 20.7221 18.8391 20.7221C19.7157 20.7221 20.4141 20.0618 20.6157 19.0379L23.9437 2.26312C24.0797 1.59327 23.9672 0.990413 23.6297 0.569368Z" fill="#231F20"/>
<path d="M9.83015 13.368C9.85827 13.2531 9.91452 13.1431 9.9989 13.0474L15.0613 7.55469L5.66772 12.4589L7.8005 18.6837C7.92237 19.0377 8.10518 19.3392 8.32549 19.5784L9.83015 13.368Z" fill="#231F20"/>
<path d="M9.63818 20.1523C10.1444 20.1475 10.6413 19.9274 11.0819 19.5207L12.6428 18.0519L10.5616 16.3438L9.63818 20.1523Z" fill="#231F20"/>
</svg>
