<svg width="32" height="18" viewBox="0 0 32 18" fill="none" xmlns="http://www.w3.org/2000/svg">
<g clip-path="url(#clip0)">
<path d="M31.8308 16.2497C31.7899 16.1692 31.7549 16.1002 31.7199 16.0426C31.1656 15.0589 30.1036 13.8451 28.5398 12.4127L28.5047 12.3782L28.4872 12.361L28.4697 12.3437H28.4522C27.7403 11.6764 27.291 11.2277 27.1043 10.9976C26.76 10.5604 26.6842 10.1174 26.8709 9.66872C27.0051 9.32932 27.5069 8.61024 28.3705 7.51724C28.8257 6.93622 29.1875 6.47026 29.4559 6.11935C31.3756 3.59969 32.2101 1.98896 31.9533 1.29289L31.8541 1.13181C31.7899 1.03402 31.6149 0.941976 31.3406 0.861439C31.0605 0.780902 30.7046 0.763644 30.2728 0.821171L25.4763 0.855686C25.4004 0.826923 25.2896 0.832676 25.1437 0.861439C24.9978 0.895955 24.9278 0.913213 24.9278 0.913213L24.8461 0.953481L24.7819 1.00525C24.7236 1.03977 24.6652 1.0973 24.601 1.17783C24.5368 1.25837 24.4785 1.35617 24.4376 1.46547C23.9125 2.78857 23.3231 4.01964 22.6521 5.15866C22.2436 5.83747 21.8643 6.42424 21.5201 6.92472C21.1758 7.4252 20.8899 7.78761 20.6565 8.02347C20.423 8.25933 20.213 8.44917 20.0204 8.58723C19.8337 8.73104 19.6878 8.78857 19.5886 8.76556C19.4894 8.74255 19.3961 8.71954 19.3027 8.70228C19.1451 8.60449 19.0226 8.47218 18.9292 8.2996C18.8359 8.12702 18.7717 7.91417 18.7367 7.66105C18.7017 7.40219 18.6842 7.18359 18.6783 6.99375C18.6725 6.80966 18.6783 6.54504 18.6842 6.20564C18.6958 5.86623 18.7017 5.63613 18.7017 5.51532C18.7017 5.10113 18.7075 4.64667 18.725 4.1577C18.7425 3.66873 18.7542 3.2833 18.7659 3.00142C18.7775 2.71954 18.7834 2.41465 18.7834 2.09826C18.7834 1.78186 18.7659 1.5345 18.725 1.35041C18.6842 1.17208 18.6258 0.99375 18.55 0.826923C18.4741 0.660097 18.3574 0.527786 18.2057 0.429991C18.054 0.337949 17.8672 0.263165 17.6455 0.205639C17.0562 0.073328 16.3093 0.00429637 15.399 -0.0072089C13.3333 -0.0302194 12.0088 0.102091 11.4194 0.389723C11.186 0.510528 10.9759 0.671602 10.7892 0.88445C10.5908 1.12606 10.5616 1.25837 10.7075 1.28138C11.3727 1.37918 11.8454 1.61503 12.1255 1.98896L12.2247 2.18455C12.3005 2.32836 12.3822 2.58148 12.4581 2.93814C12.5339 3.30056 12.5864 3.69749 12.6098 4.13469C12.6623 4.93431 12.6623 5.61887 12.6098 6.18838C12.5514 6.75789 12.4989 7.20084 12.4522 7.51724C12.3997 7.83363 12.3297 8.0925 12.2247 8.28809C12.1255 8.48368 12.0554 8.60449 12.0263 8.65051C11.9912 8.69653 11.9679 8.71954 11.9446 8.73104C11.7987 8.78282 11.6528 8.81158 11.4953 8.81158C11.3377 8.81158 11.151 8.7368 10.9292 8.58148C10.7075 8.42616 10.4741 8.21906 10.2407 7.94869C10.0015 7.67831 9.73304 7.30439 9.42961 6.82117C9.13202 6.33795 8.81692 5.76844 8.49599 5.11264L8.22757 4.63517C8.05835 4.33028 7.83078 3.88157 7.54486 3.2948C7.2531 2.70803 7.00219 2.14428 6.78045 1.59202C6.69292 1.36192 6.55872 1.18934 6.37783 1.06853L6.29613 1.01676C6.24362 0.970739 6.15026 0.924718 6.02772 0.878697C5.90518 0.826923 5.7768 0.792407 5.6426 0.769397L1.0795 0.803913C0.612691 0.803913 0.297593 0.90746 0.128373 1.11456L0.0641867 1.21235C0.0175055 1.28713 0 1.37342 0 1.49423C0 1.61503 0.0350109 1.7646 0.0991977 1.93718C0.764405 3.48464 1.4938 4.96882 2.27571 6.40698C3.05762 7.84514 3.74034 8.99567 4.31802 9.87007C4.8957 10.7445 5.48505 11.5728 6.08607 12.3495C6.68709 13.1261 7.08388 13.6265 7.27644 13.8451C7.469 14.0637 7.62655 14.2306 7.73742 14.3399L8.15171 14.7368C8.42013 15.0014 8.81109 15.3121 9.32458 15.6802C9.84391 16.0484 10.4158 16.4108 11.0401 16.7675C11.6703 17.1241 12.3997 17.4118 13.2283 17.6361C14.0627 17.8605 14.8738 17.9525 15.6616 17.9065H17.5755C17.9664 17.872 18.2582 17.7512 18.4566 17.5441L18.5208 17.4635C18.5675 17.4003 18.6083 17.2967 18.6433 17.1587C18.6842 17.0206 18.7017 16.871 18.7017 16.7042C18.69 16.2325 18.725 15.8068 18.8125 15.4329C18.8942 15.0532 18.9876 14.7713 19.0985 14.5815C19.2035 14.3916 19.326 14.2306 19.4544 14.0983C19.5886 13.9659 19.682 13.8854 19.7403 13.8624C19.7929 13.8336 19.8395 13.8164 19.8745 13.8049C20.143 13.7186 20.4522 13.8049 20.814 14.058C21.1758 14.3169 21.5142 14.6332 21.8293 15.0129C22.1444 15.3926 22.5237 15.8125 22.973 16.2843C23.4165 16.756 23.8074 17.1069 24.14 17.337L24.4726 17.5326C24.6944 17.6649 24.9861 17.7857 25.3421 17.895C25.698 18.0043 26.0073 18.0331 26.2757 17.9755L30.5412 17.9123C30.9613 17.9123 31.2939 17.8432 31.5215 17.7052C31.7549 17.5671 31.895 17.4175 31.9358 17.2507C31.9825 17.0839 31.9825 16.8998 31.9416 16.6927C31.9066 16.4798 31.8658 16.336 31.8308 16.2497Z" fill="#231F20"/>
</g>
<defs>
<clipPath id="clip0">
<rect width="32" height="18" fill="white"/>
</clipPath>
</defs>
</svg>
