<svg width="24" height="29" viewBox="0 0 24 29" fill="none" xmlns="http://www.w3.org/2000/svg">
<g clip-path="url(#clip0)">
<path d="M23.5802 14.9876C23.4384 14.3528 23.1321 13.8143 22.65 13.3835C22.1678 12.9527 21.6176 12.6976 20.9879 12.6239C19.0026 12.4085 16.0076 12.3008 11.9972 12.3008C7.99244 12.3008 5.00307 12.4085 3.0234 12.6239C2.38809 12.6976 1.83219 12.9527 1.35571 13.3835C0.879225 13.8143 0.567242 14.3471 0.414086 14.9876C0.14181 16.2404 0 18.128 0 20.6505C0 23.2183 0.14181 25.1059 0.419759 26.3133C0.561569 26.9482 0.873552 27.4867 1.35004 27.9175C1.83219 28.3483 2.38242 28.5977 3.01205 28.66C4.9974 28.8868 7.99244 29.0002 12.0028 29.0002C16.0076 29.0002 19.0026 28.8868 20.9936 28.66C21.6176 28.5977 22.1678 28.3483 22.6443 27.9175C23.1208 27.4867 23.4328 26.9538 23.5859 26.3133C23.8639 25.0606 24.0057 23.1729 24.0057 20.6505C24 18.0826 23.8639 16.195 23.5802 14.9876ZM6.85228 16.6202H5.11652V25.8258H3.49988V16.6202H1.79816V15.101H6.85228V16.6202ZM11.2257 25.8315H9.78492V24.9585C9.20066 25.6161 8.65044 25.9448 8.13425 25.9448C7.63507 25.9448 7.32309 25.7464 7.19263 25.344C7.10754 25.0832 7.06216 24.6921 7.06216 24.1649V17.8332H8.50295V23.7228C8.50295 24.0686 8.50863 24.2556 8.51997 24.2896C8.55401 24.5164 8.66745 24.6297 8.86032 24.6297C9.14961 24.6297 9.46159 24.403 9.78492 23.9495V17.8332H11.2257V25.8315ZM16.728 23.4337C16.728 24.2216 16.6769 24.7601 16.5805 25.0549C16.399 25.6501 16.0132 25.9448 15.429 25.9448C14.9128 25.9448 14.4079 25.6501 13.9201 25.0549V25.8315H12.4793V15.101H13.9201V18.6155C14.3853 18.0316 14.8844 17.7425 15.429 17.7425C16.0132 17.7425 16.3933 18.043 16.5805 18.6495C16.6769 18.9272 16.728 19.4658 16.728 20.2537V23.4337ZM22.2018 22.1073H19.3032V23.5131C19.3032 24.2556 19.5528 24.6297 20.0463 24.6297C20.4037 24.6297 20.6192 24.437 20.693 24.0459C20.7157 23.9382 20.727 23.6094 20.727 23.0596H22.2018V23.2693C22.2018 23.7965 22.1905 24.1082 22.1678 24.2103C22.1338 24.4994 22.0203 24.7941 21.8275 25.0832C21.4361 25.6557 20.8575 25.9392 20.0804 25.9392C19.3373 25.9392 18.753 25.6614 18.3333 25.1116C18.0213 24.7148 17.8624 24.0856 17.8624 23.2353V20.4351C17.8624 19.5848 18.0156 18.9556 18.3162 18.5588C18.736 18.0089 19.3146 17.7312 20.052 17.7312C20.7781 17.7312 21.351 18.0089 21.7707 18.5588C22.06 18.9556 22.2075 19.5848 22.2075 20.4351L22.2018 22.1073Z" fill="#231F20"/>
<path d="M14.6575 19.0469C14.4079 19.0469 14.164 19.1659 13.9314 19.404V24.2732C14.1696 24.5113 14.4136 24.6303 14.6575 24.6303C15.0772 24.6303 15.2871 24.2676 15.2871 23.5477V20.1352C15.2871 19.4097 15.0772 19.0469 14.6575 19.0469Z" fill="#231F20"/>
<path d="M20.0352 19.0469C19.5473 19.0469 19.3091 19.4153 19.3091 20.1466V20.8891H20.7612V20.1466C20.7612 19.4153 20.5173 19.0469 20.0352 19.0469Z" fill="#231F20"/>
<path d="M5.91067 6.45641V10.8438H7.52731V6.45641L9.48996 0H7.83929L6.73884 4.25704L5.58734 0H3.87427C4.17491 0.906959 4.5266 1.91595 4.92934 3.02697C5.43418 4.51779 5.76318 5.65715 5.91067 6.45641Z" fill="#231F20"/>
<path d="M11.6624 10.9571C12.4054 10.9571 12.9784 10.6793 13.3811 10.1295C13.6817 9.73267 13.8349 9.09213 13.8349 8.21918V5.38494C13.8349 4.52333 13.6817 3.88846 13.3811 3.49166C12.984 2.94182 12.4111 2.66406 11.6624 2.66406C10.9363 2.66406 10.369 2.94182 9.96063 3.49166C9.65999 3.88846 9.50684 4.52333 9.50684 5.38494V8.21918C9.50684 9.0808 9.65999 9.72133 9.96063 10.1295C10.369 10.6793 10.9363 10.9571 11.6624 10.9571ZM10.9646 5.09585C10.9646 4.35327 11.1972 3.97915 11.6624 3.97915C12.1275 3.97915 12.3601 4.35327 12.3601 5.09585V8.49694C12.3601 9.25085 12.1275 9.63064 11.6624 9.63064C11.1972 9.63064 10.9646 9.25085 10.9646 8.49694V5.09585Z" fill="#231F20"/>
<path d="M16.1155 10.9566C16.6544 10.9566 17.2102 10.6222 17.7832 9.95327V10.8432H19.258V2.76562H17.7832V8.93294C17.4598 9.39776 17.1535 9.63017 16.8586 9.63017C16.6657 9.63017 16.5522 9.51113 16.5182 9.27305C16.5069 9.25038 16.5012 9.06332 16.5012 8.7062V2.76562H15.0264V9.14268C15.0264 9.69252 15.0717 10.095 15.1568 10.3557C15.2986 10.7582 15.6163 10.9566 16.1155 10.9566Z" fill="#231F20"/>
</g>
<defs>
<clipPath id="clip0">
<rect width="24" height="29" fill="white"/>
</clipPath>
</defs>
</svg>
